# Blender v2.79 (sub 0) OBJ File: ''
# www.blender.org
mtllib buckwheat.mtl
o buckwheat_Cube.002
v -0.112515 -0.754584 1.651884
v -0.283961 -0.754584 1.480438
v -0.283961 0.754584 1.480438
v -0.112515 0.754584 1.651884
v -0.283961 -0.754584 0.901414
v -0.112515 -0.754584 0.729968
v -0.112515 0.754584 0.729968
v -0.283961 0.754584 0.901414
v 0.283961 -0.754584 1.480438
v 0.112515 -0.754584 1.651884
v 0.112515 0.754584 1.651884
v 0.283961 0.754584 1.480438
v 0.112515 -0.754584 0.729968
v 0.283961 -0.754584 0.901414
v 0.283961 0.754584 0.901414
v 0.112515 0.754584 0.729968
vt 0.333739 0.119311
vt 0.333739 0.530763
vt 0.272388 0.530763
vt 0.272388 0.119311
vt 0.998790 -0.125398
vt 0.998790 1.118742
vt 0.521450 1.118742
vt 0.521450 -0.125398
vt 0.217037 0.531057
vt 0.263779 0.577799
vt 0.263779 0.639149
vt 0.217037 0.685892
vt 0.059175 0.685892
vt 0.012433 0.639149
vt 0.012433 0.577799
vt 0.059175 0.531057
vt 0.997263 -0.125398
vt 0.997263 1.118742
vt 0.519923 1.118742
vt 0.519923 -0.125398
vt 0.139887 0.119311
vt 0.139887 0.530763
vt 0.078537 0.530763
vt 0.078537 0.119311
vt 0.206285 0.530763
vt 0.206285 0.119311
vt 0.205991 0.119311
vt 0.205991 0.530763
vt 0.012433 0.530763
vt 0.012433 0.119311
vt 0.399842 0.119311
vt 0.399842 0.530763
vt 0.468677 0.531057
vt 0.515419 0.577799
vt 0.515419 0.639149
vt 0.468677 0.685892
vt 0.310815 0.685892
vt 0.264073 0.639149
vt 0.264073 0.577799
vt 0.310815 0.531057
vn 0.2971 -0.6302 0.7173
vn 0.2971 0.6302 0.7173
vn -0.2971 0.6302 0.7173
vn -0.2971 -0.6302 0.7173
vn 0.7173 -0.6302 -0.2971
vn 0.7173 0.6302 -0.2971
vn 0.7173 0.6302 0.2971
vn 0.7173 -0.6302 0.2971
vn 0.2971 0.6302 -0.7173
vn -0.2971 0.6302 -0.7173
vn -0.7173 0.6302 -0.2971
vn -0.7173 0.6302 0.2971
vn -0.7173 -0.6302 0.2971
vn -0.7173 -0.6302 -0.2971
vn -0.2971 -0.6302 -0.7173
vn 0.2971 -0.6302 -0.7173
usemtl None
s 1
f 10/1/1 11/2/2 4/3/3 1/4/4
f 14/5/5 15/6/6 12/7/7 9/8/8
f 15/9/6 16/10/9 7/11/10 8/12/11 3/13/12 4/14/3 11/15/2 12/16/7
f 2/17/13 3/18/12 8/19/11 5/20/14
f 6/21/15 7/22/10 16/23/9 13/24/16
f 1/4/4 4/3/3 3/25/12 2/26/13
f 7/22/10 6/21/15 5/27/14 8/28/11
f 15/29/6 14/30/5 13/24/16 16/23/9
f 11/2/2 10/1/1 9/31/8 12/32/7
f 5/33/14 6/34/15 13/35/16 14/36/5 9/37/8 10/38/1 1/39/4 2/40/13
