# Blender v2.79 (sub 0) OBJ File: 'carrot.blend'
# www.blender.org
mtllib carrot.mtl
o Circle
v -0.000000 0.532629 0.459164
v -0.203828 0.492085 0.459164
v -0.376626 0.376626 0.459164
v -0.492085 0.203828 0.459164
v -0.532629 -0.000000 0.459164
v -0.492085 -0.203828 0.459164
v -0.376626 -0.376626 0.459164
v -0.203828 -0.492085 0.459164
v -0.000000 -0.532629 0.459164
v 0.203828 -0.492085 0.459164
v 0.376626 -0.376626 0.459164
v 0.492085 -0.203828 0.459164
v 0.532629 0.000000 0.459164
v 0.492085 0.203828 0.459164
v 0.376626 0.376626 0.459164
v 0.203828 0.492085 0.459164
v -0.000000 0.921831 0.076796
v -0.000000 0.985528 -0.107583
v -0.377145 0.910509 -0.107583
v -0.352770 0.851661 0.076796
v -0.696874 0.696874 -0.107583
v -0.651833 0.651833 0.076796
v -0.910509 0.377145 -0.107583
v -0.851661 0.352769 0.076796
v -0.985528 -0.000000 -0.107583
v -0.921831 -0.000000 0.076796
v -0.910509 -0.377145 -0.107583
v -0.851661 -0.352770 0.076796
v -0.696874 -0.696874 -0.107583
v -0.651833 -0.651833 0.076796
v -0.377145 -0.910509 -0.107583
v -0.352770 -0.851661 0.076796
v -0.000000 -0.985528 -0.107583
v -0.000000 -0.921831 0.076796
v 0.377145 -0.910510 -0.107583
v 0.352769 -0.851661 0.076796
v 0.696874 -0.696874 -0.107583
v 0.651833 -0.651833 0.076796
v 0.910509 -0.377146 -0.107583
v 0.851661 -0.352770 0.076796
v 0.985528 0.000000 -0.107583
v 0.921831 0.000000 0.076796
v 0.910509 0.377146 -0.107583
v 0.851661 0.352770 0.076796
v 0.696874 0.696874 -0.107583
v 0.651833 0.651833 0.076796
v 0.377145 0.910510 -0.107583
v 0.352769 0.851661 0.076796
v -0.000000 0.120812 -6.535903
v 0.000000 0.042644 -6.603118
v -0.016319 0.039398 -6.603118
v -0.046233 0.111616 -6.535903
v -0.030154 0.030154 -6.603118
v -0.085427 0.085427 -6.535903
v -0.039398 0.016319 -6.603118
v -0.111616 0.046233 -6.535903
v -0.042644 -0.000000 -6.603118
v -0.120812 -0.000000 -6.535903
v -0.039398 -0.016319 -6.603118
v -0.111616 -0.046233 -6.535903
v -0.030154 -0.030154 -6.603118
v -0.085427 -0.085427 -6.535903
v -0.016319 -0.039398 -6.603118
v -0.046233 -0.111616 -6.535903
v -0.000000 -0.042644 -6.603118
v -0.000000 -0.120812 -6.535903
v 0.016319 -0.039398 -6.603118
v 0.046233 -0.111616 -6.535902
v 0.030154 -0.030154 -6.603118
v 0.085427 -0.085427 -6.535903
v 0.039398 -0.016319 -6.603118
v 0.111616 -0.046233 -6.535902
v 0.042644 -0.000000 -6.603118
v 0.120812 0.000000 -6.535902
v 0.039398 0.016319 -6.603118
v 0.111616 0.046233 -6.535903
v 0.030154 0.030154 -6.603118
v 0.085427 0.085427 -6.535903
v 0.016319 0.039398 -6.603118
v 0.046233 0.111616 -6.535902
v -0.000000 0.553170 -3.321743
v 0.211689 0.511063 -3.321742
v -0.211689 0.511063 -3.321743
v -0.391150 0.391150 -3.321743
v -0.511063 0.211689 -3.321743
v -0.553170 -0.000000 -3.321743
v -0.511063 -0.211689 -3.321743
v -0.391150 -0.391150 -3.321743
v -0.211689 -0.511063 -3.321743
v -0.000000 -0.553170 -3.321743
v 0.211689 -0.511063 -3.321742
v 0.391150 -0.391151 -3.321743
v 0.511063 -0.211689 -3.321742
v 0.553170 0.000000 -3.321742
v 0.511063 0.211689 -3.321743
v 0.391150 0.391151 -3.321743
vt 0.000104 0.882212
vt 0.065724 0.878687
vt 0.080564 0.989911
vt 0.035876 0.999896
vt 0.451417 0.893253
vt 0.495650 0.893159
vt 0.494099 0.990305
vt 0.448733 0.992218
vt 0.122092 0.878951
vt 0.125639 0.985910
vt 0.539763 0.892683
vt 0.538441 0.987693
vt 0.584063 0.892215
vt 0.581551 0.985015
vt 0.173876 0.881044
vt 0.171030 0.985498
vt 0.334033 0.442463
vt 0.304222 0.436376
vt 0.416361 0.030435
vt 0.422764 0.032973
vt 0.629092 0.892353
vt 0.623320 0.983230
vt 0.270243 0.886860
vt 0.316471 0.889464
vt 0.309461 0.991360
vt 0.262968 0.989253
vt 0.675781 0.894031
vt 0.663719 0.983707
vt 0.361952 0.891461
vt 0.356101 0.992746
vt 0.725726 0.898804
vt 0.702650 0.988371
vt 0.406891 0.892725
vt 0.402628 0.993070
vt 0.782255 0.909579
vt 0.739009 0.999895
vt 0.274529 0.428865
vt 0.244998 0.419836
vt 0.403734 0.022869
vt 0.410028 0.027105
vt 0.215686 0.409143
vt 0.187055 0.396740
vt 0.391657 0.010605
vt 0.397590 0.017430
vt 0.483843 0.453039
vt 0.453854 0.453505
vt 0.449066 0.036564
vt 0.455823 0.035914
vt 0.513810 0.451282
vt 0.462654 0.034605
vt 0.543737 0.448212
vt 0.469559 0.032578
vt 0.222915 0.883908
vt 0.216799 0.987012
vt 0.573601 0.443799
vt 0.476464 0.029723
vt 0.363927 0.447187
vt 0.429235 0.034812
vt 0.603384 0.437974
vt 0.483438 0.025979
vt 0.393877 0.450587
vt 0.435775 0.036008
vt 0.633055 0.430631
vt 0.490428 0.021098
vt 0.423859 0.452689
vt 0.442384 0.036591
vt 0.662028 0.421807
vt 0.497323 0.014723
vt 0.875639 0.144762
vt 0.846864 0.144762
vt 0.820281 0.133751
vt 0.799934 0.113404
vt 0.788923 0.086820
vt 0.788923 0.058046
vt 0.799934 0.031462
vt 0.820280 0.011116
vt 0.846864 0.000104
vt 0.875639 0.000104
vt 0.902223 0.011116
vt 0.922569 0.031462
vt 0.933580 0.058046
vt 0.933580 0.086820
vt 0.922569 0.113404
vt 0.902222 0.133751
vt 0.175227 0.854348
vt 0.224397 0.858419
vt 0.271603 0.862134
vt 0.317548 0.865240
vt 0.362657 0.867584
vt 0.407193 0.869104
vt 0.451344 0.869817
vt 0.495286 0.869824
vt 0.539255 0.869313
vt 0.583639 0.868570
vt 0.629097 0.868015
vt 0.676769 0.868281
vt 0.728633 0.870418
vt 0.788714 0.875782
vt 0.000302 0.843543
vt 0.065640 0.846791
vt 0.122935 0.850303
vt 0.423100 0.009244
vt 0.426835 0.011095
vt 0.430819 0.012469
vt 0.434974 0.013404
vt 0.439242 0.013929
vt 0.443572 0.014058
vt 0.447917 0.013797
vt 0.452230 0.013139
vt 0.456463 0.012066
vt 0.460560 0.010552
vt 0.464789 0.009104
vt 0.468305 0.006688
vt 0.471427 0.003709
vt 0.474268 0.000372
vt 0.414894 0.000104
vt 0.417125 0.003563
vt 0.420099 0.006560
vt 0.800504 0.151914
vt 0.799623 0.154042
vt 0.797994 0.155671
vt 0.795865 0.156553
vt 0.793562 0.156553
vt 0.791433 0.155671
vt 0.789804 0.154042
vt 0.788923 0.151914
vt 0.788923 0.149610
vt 0.789804 0.147482
vt 0.791433 0.145853
vt 0.793562 0.144971
vt 0.795865 0.144971
vt 0.797994 0.145853
vt 0.799623 0.147482
vt 0.800504 0.149610
vn 0.7882 0.3265 0.5216
vn 0.6033 0.6033 0.5216
vn 0.2953 0.2953 0.9086
vn 0.3858 0.1598 0.9086
vn -0.6033 -0.6033 0.5216
vn -0.3265 -0.7882 0.5216
vn -0.1598 -0.3858 0.9086
vn -0.2953 -0.2953 0.9086
vn 0.3265 0.7882 0.5216
vn 0.1598 0.3858 0.9086
vn 0.0000 -0.8531 0.5216
vn 0.0000 -0.4176 0.9086
vn 0.3265 -0.7882 0.5216
vn 0.1598 -0.3858 0.9086
vn 0.0000 0.8531 0.5216
vn 0.0000 0.4176 0.9086
vn -0.7008 0.7008 -0.1333
vn -0.3793 0.9156 -0.1333
vn -0.3399 0.8206 -0.4593
vn -0.6281 0.6281 -0.4593
vn 0.6033 -0.6033 0.5216
vn 0.2953 -0.2953 0.9086
vn -0.6033 0.6033 0.5216
vn -0.7882 0.3265 0.5216
vn -0.3858 0.1598 0.9086
vn -0.2953 0.2953 0.9086
vn 0.7882 -0.3265 0.5216
vn 0.3858 -0.1598 0.9086
vn -0.8531 0.0000 0.5216
vn -0.4176 0.0000 0.9086
vn 0.8531 0.0000 0.5216
vn 0.4176 0.0000 0.9086
vn -0.7882 -0.3265 0.5216
vn -0.3858 -0.1598 0.9086
vn 0.0000 0.9911 -0.1333
vn 0.3793 0.9156 -0.1333
vn 0.3399 0.8206 -0.4593
vn 0.0000 0.8883 -0.4593
vn 0.7008 0.7008 -0.1333
vn 0.9156 0.3793 -0.1333
vn 0.8206 0.3399 -0.4593
vn 0.6281 0.6281 -0.4593
vn -0.3793 -0.9156 -0.1333
vn -0.7008 -0.7008 -0.1333
vn -0.6281 -0.6281 -0.4593
vn -0.3399 -0.8206 -0.4593
vn 0.0000 -0.9911 -0.1333
vn 0.0000 -0.8883 -0.4593
vn 0.3793 -0.9156 -0.1333
vn 0.3399 -0.8206 -0.4593
vn -0.3265 0.7882 0.5216
vn -0.1598 0.3858 0.9086
vn 0.7008 -0.7008 -0.1333
vn 0.6281 -0.6281 -0.4593
vn -0.9156 0.3793 -0.1333
vn -0.8206 0.3399 -0.4593
vn 0.9156 -0.3793 -0.1333
vn 0.8206 -0.3399 -0.4593
vn -0.9911 0.0000 -0.1333
vn -0.8883 0.0000 -0.4593
vn 0.9911 0.0000 -0.1333
vn 0.8883 0.0000 -0.4593
vn -0.9156 -0.3793 -0.1333
vn -0.8206 -0.3399 -0.4593
vn 0.0000 0.9953 0.0966
vn -0.3809 0.9196 0.0966
vn -0.7038 0.7038 0.0966
vn -0.9196 0.3809 0.0966
vn -0.9953 0.0000 0.0966
vn -0.9196 -0.3809 0.0966
vn -0.7038 -0.7038 0.0966
vn -0.3809 -0.9196 0.0966
vn 0.0000 -0.9953 0.0966
vn 0.3809 -0.9196 0.0966
vn 0.7038 -0.7038 0.0966
vn 0.9196 -0.3809 0.0966
vn 0.9953 0.0000 0.0966
vn 0.9196 0.3809 0.0966
vn 0.7038 0.7038 0.0966
vn 0.3809 0.9196 0.0966
vn 0.0000 0.3847 -0.9230
vn -0.1472 0.3554 -0.9230
vn -0.2720 0.2720 -0.9230
vn -0.3554 0.1472 -0.9230
vn -0.3847 0.0000 -0.9230
vn -0.3554 -0.1472 -0.9230
vn -0.2720 -0.2720 -0.9230
vn -0.1472 -0.3554 -0.9230
vn 0.0000 -0.3847 -0.9230
vn 0.1472 -0.3554 -0.9230
vn 0.2720 -0.2720 -0.9230
vn 0.3554 -0.1472 -0.9230
vn 0.3847 0.0000 -0.9230
vn 0.3554 0.1472 -0.9230
vn 0.2720 0.2720 -0.9230
vn 0.1472 0.3554 -0.9230
usemtl Material.001
s 1
f 44/1/1 46/2/2 15/3/3 14/4/4
f 30/5/5 32/6/6 8/7/7 7/8/8
f 46/2/2 48/9/9 16/10/10 15/3/3
f 32/6/6 34/11/11 9/12/12 8/7/7
f 34/11/11 36/13/13 10/14/14 9/12/12
f 48/9/9 17/15/15 1/16/16 16/10/10
f 84/17/17 83/18/18 52/19/19 54/20/20
f 36/13/13 38/21/21 11/22/22 10/14/14
f 22/23/23 24/24/24 4/25/25 3/26/26
f 38/21/21 40/27/27 12/28/28 11/22/22
f 24/24/24 26/29/29 5/30/30 4/25/25
f 40/27/27 42/31/31 13/32/32 12/28/28
f 26/29/29 28/33/33 6/34/34 5/30/30
f 42/31/31 44/35/1 14/36/4 13/32/32
f 28/33/33 30/5/5 7/8/8 6/34/34
f 81/37/35 82/38/36 80/39/37 49/40/38
f 96/41/39 95/42/40 76/43/41 78/44/42
f 89/45/43 88/46/44 62/47/45 64/48/46
f 82/38/36 96/41/39 78/44/42 80/39/37
f 90/49/47 89/45/43 64/48/46 66/50/48
f 91/51/49 90/49/47 66/50/48 68/52/50
f 83/18/18 81/37/35 49/40/38 52/19/19
f 20/53/51 22/23/23 3/26/26 2/54/52
f 92/55/53 91/51/49 68/52/50 70/56/54
f 85/57/55 84/17/17 54/20/20 56/58/56
f 93/59/57 92/55/53 70/56/54 72/60/58
f 86/61/59 85/57/55 56/58/56 58/62/60
f 94/63/61 93/59/57 72/60/58 74/64/62
f 87/65/63 86/61/59 58/62/60 60/66/64
f 95/67/40 94/63/61 74/64/62 76/68/41
f 88/46/44 87/65/63 60/66/64 62/47/45
f 2/69/52 3/70/26 4/71/25 5/72/30 6/73/34 7/74/8 8/75/7 9/76/12 10/77/14 11/78/22 12/79/28 13/80/32 14/81/4 15/82/3 16/83/10 1/84/16
f 20/53/51 17/15/15 18/85/65 19/86/66
f 22/23/23 20/53/51 19/86/66 21/87/67
f 24/24/24 22/23/23 21/87/67 23/88/68
f 26/29/29 24/24/24 23/88/68 25/89/69
f 28/33/33 26/29/29 25/89/69 27/90/70
f 30/5/5 28/33/33 27/90/70 29/91/71
f 32/6/6 30/5/5 29/91/71 31/92/72
f 34/11/11 32/6/6 31/92/72 33/93/73
f 36/13/13 34/11/11 33/93/73 35/94/74
f 38/21/21 36/13/13 35/94/74 37/95/75
f 40/27/27 38/21/21 37/95/75 39/96/76
f 42/31/31 40/27/27 39/96/76 41/97/77
f 44/35/1 42/31/31 41/97/77 43/98/78
f 46/2/2 44/1/1 43/99/78 45/100/79
f 48/9/9 46/2/2 45/100/79 47/101/80
f 17/15/15 48/9/9 47/101/80 18/85/65
f 17/15/15 20/53/51 2/54/52 1/16/16
f 52/19/19 49/40/38 50/102/81 51/103/82
f 54/20/20 52/19/19 51/103/82 53/104/83
f 56/58/56 54/20/20 53/104/83 55/105/84
f 58/62/60 56/58/56 55/105/84 57/106/85
f 60/66/64 58/62/60 57/106/85 59/107/86
f 62/47/45 60/66/64 59/107/86 61/108/87
f 64/48/46 62/47/45 61/108/87 63/109/88
f 66/50/48 64/48/46 63/109/88 65/110/89
f 68/52/50 66/50/48 65/110/89 67/111/90
f 70/56/54 68/52/50 67/111/90 69/112/91
f 72/60/58 70/56/54 69/112/91 71/113/92
f 74/64/62 72/60/58 71/113/92 73/114/93
f 76/68/41 74/64/62 73/114/93 75/115/94
f 78/44/42 76/43/41 75/116/94 77/117/95
f 80/39/37 78/44/42 77/117/95 79/118/96
f 49/40/38 80/39/37 79/118/96 50/102/81
f 51/119/82 50/120/81 79/121/96 77/122/95 75/123/94 73/124/93 71/125/92 69/126/91 67/127/90 65/128/89 63/129/88 61/130/87 59/131/86 57/132/85 55/133/84 53/134/83
f 29/91/71 27/90/70 87/65/63 88/46/44
f 43/98/78 41/97/77 94/63/61 95/67/40
f 27/90/70 25/89/69 86/61/59 87/65/63
f 41/97/77 39/96/76 93/59/57 94/63/61
f 25/89/69 23/88/68 85/57/55 86/61/59
f 39/96/76 37/95/75 92/55/53 93/59/57
f 23/88/68 21/87/67 84/17/17 85/57/55
f 37/95/75 35/94/74 91/51/49 92/55/53
f 19/86/66 18/85/65 81/37/35 83/18/18
f 35/94/74 33/93/73 90/49/47 91/51/49
f 33/93/73 31/92/72 89/45/43 90/49/47
f 47/101/80 45/100/79 96/41/39 82/38/36
f 31/92/72 29/91/71 88/46/44 89/45/43
f 45/100/79 43/99/78 95/42/40 96/41/39
f 18/85/65 47/101/80 82/38/36 81/37/35
f 21/87/67 19/86/66 83/18/18 84/17/17
