# Blender v2.79 (sub 0) OBJ File: ''
# www.blender.org
mtllib cucumber.mtl
o Sphere
v -0.516592 0.785603 3.440407
v -0.998012 0.923880 1.861935
v -1.233331 0.923880 -1.882926
v -0.565991 0.382684 -4.621178
v 0.153303 0.353553 4.495109
v -0.215955 0.725803 3.440407
v -0.644459 0.853553 1.861935
v -0.900014 0.923880 0.000000
v -0.882559 0.853553 -1.927184
v -0.655020 0.725803 -3.546881
v -0.420696 0.353553 -4.639510
v 0.277454 0.270598 4.495109
v 0.038913 0.555505 3.440407
v -0.344731 0.653281 1.861935
v -0.575591 0.707107 0.000000
v -0.585188 0.653281 -1.964705
v -0.402157 0.555506 -3.578785
v -0.297521 0.270598 -4.655051
v 0.360410 0.146447 4.495109
v 0.209211 0.300637 3.440407
v -0.144459 0.353553 1.861935
v -0.358818 0.382683 -0.000000
v -0.386492 0.353553 -1.989775
v -0.233199 0.300637 -3.600103
v -0.215218 0.146447 -4.665436
v 0.389540 0.000000 4.495109
v 0.269011 0.000000 3.440407
v -0.074133 -0.000000 1.861935
v -0.282698 0.000000 -0.000000
v -0.316719 0.000000 -1.998578
v -0.173869 0.000000 -3.607589
v -0.186317 0.000000 -4.669082
v 0.360410 -0.146446 4.495109
v 0.209211 -0.300637 3.440407
v -0.144459 -0.353553 1.861935
v -0.358818 -0.382683 -0.000000
v -0.386492 -0.353553 -1.989775
v -0.233199 -0.300637 -3.600103
v -0.215218 -0.146446 -4.665436
v 0.277454 -0.270598 4.495109
v 0.038913 -0.555505 3.440407
v -0.344731 -0.653281 1.861935
v -0.575591 -0.707107 -0.000000
v -0.585189 -0.653281 -1.964705
v -0.402157 -0.555505 -3.578785
v -0.297521 -0.270598 -4.655051
v 0.153303 -0.353553 4.495109
v -0.215955 -0.725803 3.440407
v -0.644459 -0.853553 1.861935
v -0.900014 -0.923879 -0.000000
v -0.882559 -0.853553 -1.927184
v -0.655020 -0.725803 -3.546881
v -0.420696 -0.353553 -4.639510
v 0.006856 -0.382683 4.495109
v -0.516592 -0.785603 3.440407
v -0.998013 -0.923879 1.861935
v -1.282698 -1.000000 -0.000000
v -1.233331 -0.923879 -1.882926
v -0.953293 -0.785603 -3.509247
v -0.565991 -0.382683 -4.621178
v -0.139590 -0.353553 4.495109
v -0.817229 -0.725803 3.440407
v -1.351566 -0.853553 1.861935
v -1.665381 -0.923879 -0.000000
v -1.584103 -0.853553 -1.838668
v -1.251565 -0.725802 -3.471612
v -0.711285 -0.353553 -4.602845
v -0.263741 -0.270598 4.495109
v -1.072097 -0.555505 3.440407
v -1.651294 -0.653281 1.861935
v -1.989804 -0.707106 -0.000000
v -1.881474 -0.653281 -1.801148
v -1.504428 -0.555505 -3.439708
v -0.834460 -0.270598 -4.587304
v -0.346697 -0.146446 4.495109
v -1.242395 -0.300637 3.440407
v -1.851566 -0.353553 1.861935
v -2.206577 -0.382683 -0.000000
v -2.080170 -0.353553 -1.776078
v -1.673386 -0.300637 -3.418390
v -0.916763 -0.146446 -4.576920
v -0.375827 0.000000 4.495109
v -1.302195 0.000000 3.440407
v -1.921891 0.000001 1.861935
v -2.282697 0.000001 -0.000000
v -2.149943 0.000001 -1.767274
v -1.732716 0.000001 -3.410904
v -0.945664 0.000000 -4.573273
v -0.346697 0.146447 4.495109
v -1.242394 0.300638 3.440407
v -1.851565 0.353554 1.861935
v -2.206576 0.382684 -0.000000
v -2.080170 0.353554 -1.776077
v -1.673386 0.300638 -3.418390
v -0.916763 0.146447 -4.576920
v -0.263741 0.270598 4.495109
v -1.072097 0.555506 3.440407
v -1.651293 0.653282 1.861935
v -1.989803 0.707107 0.000000
v -1.881473 0.653282 -1.801148
v -1.504428 0.555506 -3.439708
v -0.834460 0.270598 -4.587304
v -0.139590 0.353553 4.495109
v -0.817229 0.725803 3.440407
v -1.351565 0.853553 1.861935
v -1.665380 0.923880 0.000000
v -1.584103 0.853553 -1.838668
v -1.251565 0.725803 -3.471612
v -0.711285 0.353553 -4.602845
v 0.338108 -0.000000 4.865470
v 0.006856 0.382683 4.495109
v -1.282697 1.000000 0.000000
v -0.953292 0.785603 -3.509246
v -0.283707 0.000000 -5.030092
vn -0.0577 0.8431 -0.5347
vn -0.0320 0.9743 -0.2229
vn 0.3607 0.9233 -0.1315
vn 0.3050 0.8527 -0.4240
vn -0.0154 0.9977 -0.0663
vn -0.0121 0.9999 0.0014
vn 0.3730 0.9275 -0.0228
vn 0.3743 0.9269 -0.0273
vn -0.0082 0.9977 0.0678
vn -0.0038 0.9743 0.2251
vn 0.3743 0.9233 0.0853
vn 0.3747 0.9269 -0.0197
vn 0.0097 0.8431 0.5377
vn 0.4637 0.0000 0.8860
vn 0.3557 0.8527 0.3825
vn 0.3492 0.0000 -0.9370
vn 0.7005 0.7123 -0.0431
vn 0.6989 0.7088 -0.0953
vn 0.6872 0.6958 0.2087
vn 0.6557 0.6958 -0.2931
vn 0.7049 0.7093 0.0064
vn 0.7004 0.7123 -0.0449
vn 0.7012 0.7116 -0.0444
vn 0.9034 0.3886 -0.1812
vn 0.9234 0.3827 0.0290
vn 0.9231 0.3843 0.0158
vn 0.9125 0.3822 -0.1456
vn 0.9208 0.3855 -0.0593
vn 0.9190 0.3886 0.0667
vn 0.9138 0.3843 -0.1312
vn 0.9999 0.0000 0.0119
vn 0.9868 0.0000 -0.1622
vn 0.9993 0.0000 0.0374
vn 0.9906 0.0000 -0.1370
vn 0.9979 0.0000 -0.0645
vn 0.9993 0.0000 0.0369
vn 0.9866 0.0000 -0.1631
vn 0.9231 -0.3843 0.0158
vn 0.9034 -0.3886 -0.1812
vn 0.9208 -0.3855 -0.0593
vn 0.9234 -0.3827 0.0290
vn 0.9138 -0.3843 -0.1312
vn 0.9125 -0.3822 -0.1456
vn 0.9190 -0.3886 0.0667
vn 0.6872 -0.6958 0.2087
vn 0.6557 -0.6958 -0.2931
vn 0.7049 -0.7093 0.0064
vn 0.7004 -0.7123 -0.0449
vn 0.6989 -0.7088 -0.0953
vn 0.7012 -0.7116 -0.0444
vn 0.7005 -0.7123 -0.0431
vn 0.3743 -0.9269 -0.0273
vn 0.3607 -0.9233 -0.1315
vn 0.3747 -0.9269 -0.0197
vn 0.3730 -0.9275 -0.0228
vn 0.3557 -0.8527 0.3825
vn 0.3743 -0.9233 0.0853
vn 0.3050 -0.8527 -0.4240
vn -0.0320 -0.9743 -0.2229
vn -0.0577 -0.8431 -0.5347
vn -0.0121 -0.9999 0.0014
vn -0.0154 -0.9977 -0.0663
vn -0.0038 -0.9743 0.2251
vn -0.0082 -0.9977 0.0678
vn 0.0097 -0.8431 0.5377
vn -0.3937 -0.9189 0.0242
vn -0.3981 -0.9115 -0.1034
vn -0.3587 -0.8659 0.3484
vn -0.3843 -0.9106 0.1517
vn -0.2793 -0.7046 0.6523
vn -0.3587 -0.7046 -0.6122
vn -0.3995 -0.8659 -0.3008
vn -0.5673 -0.4933 -0.6594
vn -0.7130 -0.6884 -0.1329
vn -0.6840 -0.6364 -0.3565
vn -0.6930 -0.6869 0.2189
vn -0.7134 -0.6995 0.0422
vn -0.4803 -0.4933 0.7252
vn -0.6340 -0.6364 0.4394
vn -0.8925 -0.3675 0.2615
vn -0.9246 -0.3770 0.0536
vn -0.5940 -0.2514 0.7642
vn -0.8030 -0.3342 0.4934
vn -0.8585 -0.3342 -0.3890
vn -0.6850 -0.2514 -0.6838
vn -0.9171 -0.3687 -0.1516
vn -0.9167 0.0000 -0.3995
vn -0.7226 0.0000 -0.6912
vn -0.9983 0.0000 0.0574
vn -0.9874 0.0000 -0.1579
vn -0.8595 0.0000 0.5112
vn -0.9611 0.0000 0.2760
vn -0.6304 0.0000 0.7762
vn -0.8030 0.3342 0.4934
vn -0.8925 0.3675 0.2615
vn -0.5940 0.2514 0.7642
vn -0.6850 0.2514 -0.6838
vn -0.9171 0.3687 -0.1516
vn -0.8585 0.3342 -0.3890
vn -0.9246 0.3770 0.0536
vn -0.5673 0.4933 -0.6594
vn -0.7130 0.6884 -0.1329
vn -0.6840 0.6364 -0.3565
vn -0.6930 0.6869 0.2189
vn -0.7134 0.6995 0.0422
vn -0.4803 0.4933 0.7252
vn -0.6340 0.6364 0.4394
vn -0.2793 0.7046 0.6523
vn -0.3587 0.8659 0.3484
vn -0.3995 0.8659 -0.3008
vn -0.3587 0.7046 -0.6122
vn -0.3937 0.9189 0.0242
vn -0.3981 0.9115 -0.1034
vn -0.3843 0.9106 0.1517
usemtl None
s 1
f 4//1 113//2 10//3 11//4
f 3//5 112//6 8//7 9//8
f 2//9 1//10 6//11 7//12
f 111//13 110//14 5//15
f 114//16 4//1 11//4
f 113//2 3//5 9//8 10//3
f 112//6 2//9 7//12 8//7
f 1//10 111//13 5//15 6//11
f 7//12 6//11 13//17 14//18
f 5//15 110//14 12//19
f 114//16 11//4 18//20
f 10//3 9//8 16//21 17//22
f 8//7 7//12 14//18 15//23
f 6//11 5//15 12//19 13//17
f 11//4 10//3 17//22 18//20
f 9//8 8//7 15//23 16//21
f 114//16 18//20 25//24
f 17//22 16//21 23//25 24//26
f 15//23 14//18 21//27 22//28
f 13//17 12//19 19//29 20//30
f 18//20 17//22 24//26 25//24
f 16//21 15//23 22//28 23//25
f 14//18 13//17 20//30 21//27
f 12//19 110//14 19//29
f 20//30 19//29 26//31 27//32
f 25//24 24//26 31//33 32//34
f 23//25 22//28 29//35 30//36
f 21//27 20//30 27//32 28//37
f 19//29 110//14 26//31
f 114//16 25//24 32//34
f 24//26 23//25 30//36 31//33
f 22//28 21//27 28//37 29//35
f 32//34 31//33 38//38 39//39
f 30//36 29//35 36//40 37//41
f 28//37 27//32 34//42 35//43
f 26//31 110//14 33//44
f 114//16 32//34 39//39
f 31//33 30//36 37//41 38//38
f 29//35 28//37 35//43 36//40
f 27//32 26//31 33//44 34//42
f 33//44 110//14 40//45
f 114//16 39//39 46//46
f 38//38 37//41 44//47 45//48
f 36//40 35//43 42//49 43//50
f 34//42 33//44 40//45 41//51
f 39//39 38//38 45//48 46//46
f 37//41 36//40 43//50 44//47
f 35//43 34//42 41//51 42//49
f 45//48 44//47 51//52 52//53
f 43//50 42//49 49//54 50//55
f 41//51 40//45 47//56 48//57
f 46//46 45//48 52//53 53//58
f 44//47 43//50 50//55 51//52
f 42//49 41//51 48//57 49//54
f 40//45 110//14 47//56
f 114//16 46//46 53//58
f 53//58 52//53 59//59 60//60
f 51//52 50//55 57//61 58//62
f 49//54 48//57 55//63 56//64
f 47//56 110//14 54//65
f 114//16 53//58 60//60
f 52//53 51//52 58//62 59//59
f 50//55 49//54 56//64 57//61
f 48//57 47//56 54//65 55//63
f 58//62 57//61 64//66 65//67
f 56//64 55//63 62//68 63//69
f 54//65 110//14 61//70
f 114//16 60//60 67//71
f 59//59 58//62 65//67 66//72
f 57//61 56//64 63//69 64//66
f 55//63 54//65 61//70 62//68
f 60//60 59//59 66//72 67//71
f 114//16 67//71 74//73
f 66//72 65//67 72//74 73//75
f 64//66 63//69 70//76 71//77
f 62//68 61//70 68//78 69//79
f 67//71 66//72 73//75 74//73
f 65//67 64//66 71//77 72//74
f 63//69 62//68 69//79 70//76
f 61//70 110//14 68//78
f 71//77 70//76 77//80 78//81
f 69//79 68//78 75//82 76//83
f 74//73 73//75 80//84 81//85
f 72//74 71//77 78//81 79//86
f 70//76 69//79 76//83 77//80
f 68//78 110//14 75//82
f 114//16 74//73 81//85
f 73//75 72//74 79//86 80//84
f 81//85 80//84 87//87 88//88
f 79//86 78//81 85//89 86//90
f 77//80 76//83 83//91 84//92
f 75//82 110//14 82//93
f 114//16 81//85 88//88
f 80//84 79//86 86//90 87//87
f 78//81 77//80 84//92 85//89
f 76//83 75//82 82//93 83//91
f 84//92 83//91 90//94 91//95
f 82//93 110//14 89//96
f 114//16 88//88 95//97
f 87//87 86//90 93//98 94//99
f 85//89 84//92 91//95 92//100
f 83//91 82//93 89//96 90//94
f 88//88 87//87 94//99 95//97
f 86//90 85//89 92//100 93//98
f 114//16 95//97 102//101
f 94//99 93//98 100//102 101//103
f 92//100 91//95 98//104 99//105
f 90//94 89//96 96//106 97//107
f 95//97 94//99 101//103 102//101
f 93//98 92//100 99//105 100//102
f 91//95 90//94 97//107 98//104
f 89//96 110//14 96//106
f 97//107 96//106 103//108 104//109
f 102//101 101//103 108//110 109//111
f 100//102 99//105 106//112 107//113
f 98//104 97//107 104//109 105//114
f 96//106 110//14 103//108
f 114//16 102//101 109//111
f 101//103 100//102 107//113 108//110
f 99//105 98//104 105//114 106//112
f 109//111 108//110 113//2 4//1
f 107//113 106//112 112//6 3//5
f 105//114 104//109 1//10 2//9
f 103//108 110//14 111//13
f 114//16 109//111 4//1
f 108//110 107//113 3//5 113//2
f 106//112 105//114 2//9 112//6
f 104//109 103//108 111//13 1//10
