# Blender v2.79 (sub 0) OBJ File: 'doshirak.blend'
# www.blender.org
mtllib cooking.mtl
o Cube
v 0.389347 0.097086 -0.277925
v -0.385777 0.097086 -0.277925
v -0.390673 0.097268 -0.275125
v -0.384128 0.097268 -0.281389
v 0.285349 -0.078933 -0.206922
v 0.292500 -0.078933 -0.200079
v 0.292500 -0.078933 0.200079
v 0.285349 -0.078933 0.206922
v -0.285349 -0.078933 0.206922
v -0.292501 -0.078933 0.200079
v -0.292500 -0.078933 -0.200079
v -0.285349 -0.078933 -0.206922
v 0.302918 -0.071306 -0.219661
v 0.310509 -0.071306 -0.212397
v 0.310509 -0.071306 0.212397
v 0.302918 -0.071306 0.219662
v -0.302918 -0.071306 0.219662
v -0.310509 -0.071306 0.212397
v -0.310509 -0.071306 -0.212397
v -0.302918 -0.071306 -0.219661
v 0.398552 0.067277 -0.274161
v 0.391239 0.067291 -0.281676
v 0.391238 0.067291 0.281677
v 0.398010 0.067277 0.274927
v -0.398552 0.067277 0.274161
v -0.391239 0.067291 0.281676
v -0.391239 0.067291 -0.281676
v -0.398010 0.067277 -0.274927
v -0.408826 0.097536 -0.294118
v -0.415759 0.097536 -0.287482
v -0.410572 0.097344 -0.290449
v -0.415759 0.066637 -0.287482
v -0.408826 0.066637 -0.294118
v 0.408826 0.066637 -0.294118
v 0.415759 0.066637 -0.286334
v 0.415759 0.097536 -0.286334
v 0.408826 0.097536 -0.294118
v 0.410572 0.097344 -0.290448
v 0.408825 0.097536 0.294118
v 0.415759 0.097536 0.287482
v 0.410572 0.097344 0.290449
v -0.415759 0.097536 0.286334
v -0.408826 0.097536 0.294118
v -0.410573 0.097344 0.290449
v -0.408826 0.066637 0.294118
v -0.415759 0.066637 0.286334
v 0.415759 0.066637 0.287482
v 0.408825 0.066637 0.294118
v 0.358373 0.020014 -0.258898
v 0.365974 0.020014 -0.251625
v 0.358373 0.020014 0.258899
v 0.365973 0.020014 0.251626
v -0.365974 0.020014 0.251625
v -0.358374 0.020014 0.258898
v -0.365974 0.020014 -0.251625
v -0.358373 0.020014 -0.258898
v 0.389631 0.030884 -0.268290
v 0.381957 0.030884 -0.275634
v 0.411192 0.068426 -0.284252
v 0.404259 0.068426 -0.290887
v 0.389630 0.030884 0.268290
v 0.381956 0.030884 0.275634
v 0.404258 0.068426 0.290887
v 0.411192 0.068426 0.284252
v -0.381957 0.030884 0.275634
v -0.389631 0.030884 0.268290
v -0.404259 0.068426 0.290887
v -0.411192 0.068426 0.284252
v -0.381957 0.030884 -0.275634
v -0.389631 0.030884 -0.268290
v -0.411192 0.068426 -0.284252
v -0.404259 0.068426 -0.290887
v 0.394243 0.097268 -0.274041
v 0.387698 0.097268 -0.281388
v 0.387697 0.097268 0.273880
v 0.394242 0.097268 0.267616
v -0.385777 0.097086 0.270416
v -0.390673 0.097268 0.266532
v -0.384128 0.097268 0.273879
v 0.387698 0.068100 -0.281388
v 0.394243 0.068100 -0.274041
v -0.116024 0.084389 -0.085215
v -0.114060 0.084389 -0.087096
v 0.119594 0.084389 -0.084890
v 0.117629 0.084389 -0.087095
v 0.117629 0.084389 0.079587
v 0.119594 0.084389 0.077706
v -0.116025 0.084389 0.077381
v -0.114060 0.084389 0.079587
v -0.005205 0.084389 -0.008588
v -0.005089 0.084389 -0.008699
v 0.008775 0.084389 -0.008568
v 0.008658 0.084389 -0.008699
v 0.008658 0.084389 0.001190
v 0.008775 0.084389 0.001079
v -0.005205 0.084389 0.001060
v -0.005089 0.084389 0.001190
v 0.379553 0.084389 0.257459
v 0.379553 0.084389 -0.263924
v -0.375984 0.084389 -0.264968
v -0.375984 0.084389 0.256415
v 0.373253 0.084389 0.263488
v -0.369684 0.084389 0.263488
v 0.373254 0.084389 -0.270997
v -0.369684 0.084389 -0.270997
v 0.379553 0.084389 0.257459
v 0.379553 0.084389 -0.263924
v -0.375984 0.084389 -0.264968
v -0.375984 0.084389 0.256415
v 0.373253 0.084389 0.263488
v -0.369684 0.084389 0.263488
v 0.373254 0.084389 -0.270997
v -0.369684 0.084389 -0.270997
vt 0.909182 0.175471
vt 0.902152 0.173987
vt 0.771668 0.079054
vt 0.768571 0.075310
vt 0.844745 0.297108
vt 0.942665 0.177201
vt 0.954713 0.176009
vt 0.845753 0.305770
vt 0.620630 0.168715
vt 0.850086 0.324188
vt 0.850829 0.330871
vt 0.611863 0.169258
vt 0.629633 0.166749
vt 0.753307 0.024923
vt 0.754320 0.025449
vt 0.633213 0.167620
vt 0.756447 0.024510
vt 0.973837 0.172473
vt 0.970765 0.172887
vt 0.755933 0.024764
vt 0.832042 0.264286
vt 0.834911 0.268043
vt 0.694148 0.168330
vt 0.701357 0.170156
vt 0.909358 0.175077
vt 0.834674 0.268104
vt 0.942055 0.170708
vt 0.764150 0.045185
vt 0.700514 0.167891
vt 0.693917 0.168582
vt 0.768797 0.075290
vt 0.769800 0.079934
vt 0.902615 0.175407
vt 0.833813 0.263457
vt 0.611238 0.168595
vt 0.612242 0.170129
vt 0.611482 0.167032
vt 0.954459 0.173358
vt 0.759196 0.037277
vt 0.752924 0.019345
vt 0.620595 0.167946
vt 0.610602 0.168413
vt 0.751283 0.013277
vt 0.849502 0.318522
vt 0.974265 0.177024
vt 0.983411 0.175820
vt 0.849661 0.324188
vt 0.830752 0.336265
vt 0.831369 0.337982
vt 0.824546 0.337734
vt 0.824662 0.336166
vt 0.983473 0.175077
vt 0.752521 0.019094
vt 0.751543 0.012023
vt 0.992626 0.174731
vt 0.824309 0.335190
vt 0.846362 0.318827
vt 0.630085 0.171252
vt 0.633034 0.170837
vt 0.847012 0.318583
vt 0.848624 0.317969
vt 0.970574 0.176160
vt 0.992746 0.175478
vt 0.992414 0.174388
vt 0.992720 0.174582
vt 0.992749 0.174600
vt 0.993431 0.175459
vt 0.850977 0.330651
vt 0.839144 0.298169
vt 0.661435 0.173026
vt 0.660805 0.166534
vt 0.758528 0.046281
vt 0.648916 0.167746
vt 0.757364 0.037624
vt 0.843925 0.306077
vt 0.649170 0.170368
vt 0.831964 0.337670
vt 0.831480 0.335190
vt 0.832149 0.336615
vt 0.752627 0.012127
vt 0.992137 0.174233
vt 0.839498 0.335190
vt 0.842025 0.335190
vt 0.840498 0.335573
vt 0.821461 0.335393
vt 0.824199 0.335190
vt 0.823196 0.335568
vt 0.830858 0.335190
vt 0.993090 0.176117
vt 0.852620 0.331160
vt 0.849833 0.331738
vt 0.814855 0.343327
vt 0.814855 0.335190
vt 0.821350 0.335575
vt 0.821350 0.343256
vt 0.751336 0.013059
vt 0.750057 0.011787
vt 0.824199 0.343903
vt 0.822561 0.343737
vt 0.814744 0.335190
vt 0.814744 0.343327
vt 0.808219 0.343256
vt 0.808219 0.335575
vt 0.838756 0.336325
vt 0.839387 0.337670
vt 0.022954 0.155464
vt 0.593177 0.156612
vt 0.405196 0.414657
vt 0.199257 0.416669
vt 0.594166 0.980639
vt 0.011111 0.989734
vt 0.201548 0.728549
vt 0.413932 0.722607
vt 0.016872 0.161709
vt 0.196422 0.419597
vt 0.004047 0.983043
vt 0.198253 0.725549
vt 0.600146 0.163210
vt 0.600140 0.974299
vt 0.416745 0.719628
vt 0.408406 0.417567
vt 0.297388 0.559246
vt 0.298498 0.580653
vt 0.314415 0.579998
vt 0.312450 0.557979
vt 0.314096 0.580313
vt 0.311958 0.557546
vt 0.297748 0.558850
vt 0.298888 0.580940
vt 0.610240 0.172982
vt 0.608455 0.165479
vt 0.993886 0.171016
vt 0.995744 0.178014
vt 0.747857 0.008598
vt 0.755193 0.008598
vt 0.847556 0.335079
vt 0.854980 0.334732
vn 0.0000 -0.8580 -0.5137
vn 0.4175 -0.9087 0.0000
vn -0.0000 0.0000 1.0000
vn 0.0887 0.9961 0.0000
vn -0.0000 0.9925 0.1224
vn -0.0000 -0.8580 0.5137
vn 0.8547 -0.5191 0.0000
vn 0.0000 -0.3948 -0.9188
vn -0.3900 -0.9208 -0.0000
vn 0.0000 -1.0000 -0.0000
vn 0.0063 1.0000 -0.0056
vn 0.0000 -0.3764 -0.9265
vn -1.0000 0.0000 -0.0000
vn -0.0366 -0.9993 -0.0000
vn 0.0228 -0.9996 0.0181
vn 0.0000 0.0000 -1.0000
vn -0.1249 0.9859 0.1113
vn 0.0000 0.9925 -0.1224
vn -0.0887 0.9961 -0.0000
vn -0.0083 0.9999 0.0074
vn 1.0000 0.0000 0.0000
vn -0.0000 -0.3948 0.9188
vn -0.8547 -0.5191 -0.0000
vn -0.0000 -0.9986 0.0525
vn -0.4175 -0.9087 -0.0000
vn -0.8672 -0.4980 -0.0000
vn -0.0000 -0.3764 0.9265
vn 0.8672 -0.4980 0.0000
vn 0.0000 -0.8386 -0.5447
vn 0.0366 -0.9993 0.0000
vn 0.0000 -0.9986 -0.0525
vn -0.0000 -0.8386 0.5447
vn 0.0915 0.9912 0.0957
vn -0.0000 0.9998 0.0211
vn -0.0915 0.9912 -0.0957
vn 0.1249 0.9859 -0.1113
vn 0.0216 -0.9995 0.0211
vn 0.0228 -0.9995 -0.0203
vn -0.0216 -0.9995 -0.0211
vn -0.0228 -0.9995 0.0203
vn 0.2326 -0.9417 -0.2431
vn 0.2326 -0.9417 0.2431
vn -0.2326 -0.9417 0.2431
vn -0.2326 -0.9417 -0.2431
vn -0.0501 0.9974 0.0515
vn -0.0500 0.9974 -0.0523
vn -0.2472 -0.9339 0.2583
vn 0.2472 -0.9339 0.2583
vn -0.6914 0.0000 -0.7225
vn 0.7467 0.0000 -0.6651
vn -0.7467 0.0000 0.6651
vn 0.6914 0.0000 0.7225
vn 0.5583 -0.5898 -0.5835
vn 0.5583 -0.5898 0.5835
vn -0.5583 -0.5898 0.5835
vn -0.5583 -0.5898 -0.5835
vn 0.5653 -0.5758 -0.5907
vn 0.5653 -0.5758 0.5907
vn -0.5653 -0.5758 0.5907
vn -0.5653 -0.5758 -0.5907
vn 0.0500 0.9974 0.0523
vn 0.0501 0.9974 -0.0515
vn -0.2472 -0.9339 -0.2583
vn 0.2472 -0.9339 -0.2583
vn 0.3900 -0.9208 0.0000
vn -0.0147 -0.9989 -0.0455
vn -0.0125 0.9999 -0.0000
vn -0.0064 1.0000 -0.0066
vn -0.5161 0.0000 -0.8566
vn 0.0071 0.9999 0.0074
vn 0.0000 0.9999 -0.0133
vn 0.0239 0.9996 0.0167
vn 0.0107 0.9999 -0.0000
vn 0.4961 0.0000 0.8683
vn 0.0229 0.9994 -0.0248
vn 0.0000 1.0000 -0.0000
vn 0.4394 0.8086 -0.3914
vn -0.4394 0.8086 0.3914
vn 0.4099 0.8053 0.4283
vn -0.0000 0.6280 0.7782
vn 0.0000 0.6280 -0.7782
vn -0.4099 0.8053 -0.4283
vn 0.6592 0.7519 0.0000
vn -0.6592 0.7519 -0.0000
usemtl Material
s off
f 13/1/1 5/2/1 12/3/1 20/4/1
f 52/5/2 50/6/2 57/7/2 61/8/2
f 45/9/3 48/10/3 39/11/3 43/12/3
f 25/13/4 28/14/4 71/15/4 68/16/4
f 27/17/5 22/18/5 60/19/5 72/20/5
f 8/21/6 16/22/6 17/23/6 9/24/6
f 14/25/7 50/6/7 52/5/7 15/26/7
f 49/27/8 13/1/8 20/4/8 56/28/8
f 10/29/9 18/30/9 19/31/9 11/32/9
f 5/2/10 6/33/10 7/34/10 8/21/10 9/24/10 10/29/10 11/32/10 12/3/10
f 42/35/11 43/12/11 79/36/11 78/37/11
f 60/19/12 58/38/12 69/39/12 72/20/12
f 32/40/13 46/41/13 42/42/13 30/43/13
f 24/44/14 21/45/14 35/46/14 47/47/14
f 38/48/15 36/49/15 73/50/15 1/51/15
f 34/52/16 33/53/16 29/54/16 37/55/16
f 73/50/17 74/56/17 1/51/17
f 23/57/18 26/58/18 67/59/18 63/60/18
f 21/45/19 24/44/19 64/61/19 59/62/19
f 36/63/20 37/64/20 74/65/20 73/66/20
f 47/47/21 35/46/21 36/67/21 40/68/21
f 16/22/22 51/69/22 54/70/22 17/23/22
f 18/30/23 53/71/23 55/72/23 19/31/23
f 22/18/24 27/17/24 33/53/24 34/52/24
f 55/72/25 53/71/25 66/73/25 70/74/25
f 66/73/26 68/16/26 71/15/26 70/74/26
f 62/75/27 63/60/27 67/59/27 65/76/27
f 57/7/28 59/62/28 64/61/28 61/8/28
f 49/27/29 56/28/29 69/39/29 58/38/29
f 28/14/30 25/13/30 46/41/30 32/40/30
f 26/58/31 23/57/31 48/10/31 45/9/31
f 54/70/32 51/69/32 62/75/32 65/76/32
f 29/77/33 30/78/33 31/79/33
f 37/55/34 29/54/34 4/80/34 74/81/34
f 39/82/35 40/83/35 41/84/35
f 42/85/36 43/86/36 44/87/36
f 33/53/37 27/17/37 28/14/37 32/40/37
f 26/58/38 45/9/38 46/41/38 25/13/38
f 48/10/39 23/57/39 24/44/39 47/47/39
f 22/18/40 34/52/40 35/46/40 21/45/40
f 5/2/41 13/1/41 14/25/41 6/33/41
f 7/34/42 15/26/42 16/22/42 8/21/42
f 9/24/43 17/23/43 18/30/43 10/29/43
f 11/32/44 19/31/44 20/4/44 12/3/44
f 60/19/45 22/18/45 21/45/45 59/62/45
f 23/57/46 63/60/46 64/61/46 24/44/46
f 66/73/47 53/71/47 54/70/47 65/76/47
f 52/5/48 61/8/48 62/75/48 51/69/48
f 29/54/49 33/53/49 32/40/49 30/43/49
f 34/52/50 37/64/50 36/63/50 35/46/50
f 45/9/51 43/12/51 42/42/51 46/41/51
f 39/11/52 48/10/52 47/47/52 40/68/52
f 13/1/53 49/27/53 50/6/53 14/25/53
f 15/26/54 52/5/54 51/69/54 16/22/54
f 17/23/55 54/70/55 53/71/55 18/30/55
f 19/31/56 55/72/56 56/28/56 20/4/56
f 58/38/57 60/19/57 59/62/57 57/7/57
f 61/8/58 64/61/58 63/60/58 62/75/58
f 65/76/59 67/59/59 68/16/59 66/73/59
f 70/74/60 71/15/60 72/20/60 69/39/60
f 27/17/61 72/20/61 71/15/61 28/14/61
f 67/59/62 26/58/62 25/13/62 68/16/62
f 69/39/63 56/28/63 55/72/63 70/74/63
f 49/27/64 58/38/64 57/7/64 50/6/64
f 6/33/65 14/25/65 15/26/65 7/34/65
f 37/88/66 38/48/66 1/51/66 74/56/66
f 40/68/67 36/67/67 73/89/67 76/90/67
f 39/11/68 40/68/68 76/90/68 75/91/68
f 37/92/69 34/93/69 80/94/69 74/95/69
f 29/54/70 30/96/70 3/97/70 4/80/70
f 43/12/71 39/11/71 75/91/71 79/36/71
f 42/85/72 44/87/72 77/98/72 78/99/72
f 30/43/73 42/42/73 78/37/73 3/97/73
f 35/100/74 36/101/74 73/102/74 81/103/74
f 31/79/75 30/78/75 3/104/75 2/105/75
f 98/106/76 99/107/76 84/108/76 87/109/76
f 100/110/76 101/111/76 88/112/76 82/113/76
f 102/114/76 98/106/76 87/109/76 86/115/76
f 103/116/76 102/114/76 86/115/76 89/117/76
f 104/118/76 105/119/76 83/120/76 85/121/76
f 105/119/76 100/110/76 82/113/76 83/120/76
f 99/107/76 104/118/76 85/121/76 84/108/76
f 101/111/76 103/116/76 89/117/76 88/112/76
f 89/117/76 86/115/76 94/122/76 97/123/76
f 85/121/76 83/120/76 91/124/76 93/125/76
f 83/120/76 82/113/76 90/126/76 91/124/76
f 84/108/76 85/121/76 93/125/76 92/127/76
f 87/109/76 84/108/76 92/127/76 95/128/76
f 82/113/76 88/112/76 96/129/76 90/126/76
f 86/115/76 87/109/76 95/128/76 94/122/76
f 88/112/76 89/117/76 97/123/76 96/129/76
f 96/129/76 97/123/76 94/122/76 95/128/76 92/127/76 93/125/76 91/124/76 90/126/76
f 78/37/77 79/36/77 103/130/77 101/131/77
f 73/89/78 74/81/78 104/132/78 99/133/78
f 4/80/79 3/97/79 100/134/79 105/135/79
f 74/81/80 4/80/80 105/135/80 104/132/80
f 79/36/81 75/91/81 102/136/81 103/130/81
f 75/91/82 76/90/82 98/137/82 102/136/82
f 3/97/83 78/37/83 101/131/83 100/134/83
f 76/90/84 73/89/84 99/133/84 98/137/84
l 111 109
l 112 107
l 108 113
l 113 112
l 110 111
l 106 110
l 109 108
l 107 106
