# Blender v2.79 (sub 0) OBJ File: 'oatmeal.blend'
# www.blender.org
mtllib oatmeal.mtl
o Cube_Cube.001
v -0.684767 -0.835546 0.372010
v -0.684767 0.835546 0.372010
v -0.684767 -0.835546 -0.372010
v -0.684767 0.835546 -0.372010
v 0.684767 -0.835546 0.372010
v 0.684767 0.835546 0.372010
v 0.684767 -0.835546 -0.372010
v 0.684767 0.835546 -0.372010
vt 0.000000 1.000000
vt 0.000000 0.500000
vt 0.250000 0.500000
vt 0.250000 1.000000
vt 0.459765 0.000000
vt 0.459765 0.500000
vt -0.002009 0.500000
vt -0.002009 0.000000
vt 0.500000 0.500000
vt 0.500000 1.000000
vt 0.250000 1.000000
vt 0.250000 0.500000
vt 0.458444 0.000000
vt 0.458444 0.500000
vt -0.001736 0.500000
vt -0.001736 0.000000
vt 0.750000 0.909772
vt 0.750000 0.500000
vt 1.000000 0.500000
vt 1.000000 0.909772
vt 0.750000 0.500000
vt 0.750000 0.909772
vt 0.500000 0.909772
vt 0.500000 0.500000
vn -1.0000 0.0000 0.0000
vn 0.0000 0.0000 -1.0000
vn 1.0000 0.0000 0.0000
vn 0.0000 0.0000 1.0000
vn 0.0000 -1.0000 0.0000
vn 0.0000 1.0000 0.0000
usemtl None
s off
f 1/1/1 2/2/1 4/3/1 3/4/1
f 3/5/2 4/6/2 8/7/2 7/8/2
f 7/9/3 8/10/3 6/11/3 5/12/3
f 5/13/4 6/14/4 2/15/4 1/16/4
f 3/17/5 7/18/5 5/19/5 1/20/5
f 8/21/6 4/22/6 2/23/6 6/24/6
