# Blender v2.79 (sub 0) OBJ File: 'onion.blend'
# www.blender.org
mtllib onion.mtl
o Sphere
v 0.000000 0.707107 -0.707107
v 0.000000 0.382683 -0.923880
v 0.000000 -0.382684 -0.923880
v 0.000000 -0.928357 -0.382683
v 0.270598 0.707107 -0.653281
v 0.353553 0.382683 -0.853553
v 0.382683 -0.000000 -0.923880
v 0.353553 -0.382684 -0.853553
v 0.270598 -0.707107 -0.653281
v 0.146447 -0.928357 -0.353553
v 0.500000 0.707107 -0.500000
v 0.653281 0.382683 -0.653281
v 0.707107 -0.000000 -0.707107
v 0.653281 -0.382684 -0.653281
v 0.500000 -0.707107 -0.500000
v 0.270598 -0.928357 -0.270598
v 0.653281 0.707107 -0.270598
v 0.853553 0.382683 -0.353553
v 0.923879 -0.000000 -0.382683
v 0.853553 -0.382684 -0.353553
v 0.653281 -0.707107 -0.270598
v 0.353553 -0.928357 -0.146447
v 0.707107 0.707107 -0.000000
v 0.923879 0.382683 -0.000000
v 1.000000 -0.000000 -0.000000
v 0.923879 -0.382684 -0.000000
v 0.707107 -0.707107 -0.000000
v 0.382683 -0.928357 -0.000000
v 0.653281 0.707107 0.270598
v 0.853553 0.382683 0.353553
v 0.923879 -0.000000 0.382683
v 0.853553 -0.382684 0.353553
v 0.653281 -0.707107 0.270598
v 0.353553 -0.928357 0.146446
v 0.500000 0.707107 0.500000
v 0.653281 0.382683 0.653281
v 0.707106 -0.000000 0.707107
v 0.653281 -0.382684 0.653281
v 0.500000 -0.707107 0.500000
v 0.270598 -0.928357 0.270598
v 0.270598 0.707107 0.653281
v 0.353553 0.382683 0.853553
v 0.382683 -0.000000 0.923879
v 0.353553 -0.382684 0.853553
v 0.270598 -0.707107 0.653281
v 0.146446 -0.928357 0.353553
v -0.000000 0.707107 0.707106
v -0.000000 0.382683 0.923879
v -0.000000 -0.000000 1.000000
v -0.000000 -0.382684 0.923879
v -0.000000 -0.707107 0.707106
v -0.000000 -0.928357 0.382683
v -0.270598 0.707107 0.653281
v -0.353554 0.382683 0.853553
v -0.382684 -0.000000 0.923879
v -0.353554 -0.382684 0.853553
v -0.270598 -0.707107 0.653281
v -0.146447 -0.928357 0.353553
v -0.500000 0.707107 0.499999
v -0.653282 0.382683 0.653281
v -0.707107 -0.000000 0.707106
v -0.653282 -0.382684 0.653281
v -0.500000 -0.707107 0.499999
v -0.270598 -0.928357 0.270598
v -0.653281 0.707107 0.270597
v -0.853553 0.382683 0.353553
v -0.923879 -0.000000 0.382683
v -0.853553 -0.382684 0.353553
v -0.653281 -0.707107 0.270597
v -0.353553 -0.928357 0.146446
v -0.707106 0.707107 -0.000000
v -0.923879 0.382683 -0.000001
v -1.000000 -0.000000 -0.000001
v -0.923879 -0.382684 -0.000001
v -0.707106 -0.707107 -0.000000
v -0.382683 -0.928357 -0.000000
v -0.653281 0.707107 -0.270598
v -0.853553 0.382683 -0.353554
v -0.923879 -0.000000 -0.382684
v -0.853553 -0.382684 -0.353554
v -0.653281 -0.707107 -0.270598
v -0.353553 -0.928357 -0.146447
v -0.499999 0.707107 -0.500000
v -0.653281 0.382683 -0.653282
v -0.707106 -0.000000 -0.707107
v -0.653281 -0.382684 -0.653282
v -0.499999 -0.707107 -0.500000
v -0.270598 -0.928357 -0.270598
v -0.270598 0.707107 -0.653281
v -0.353553 0.382683 -0.853553
v -0.382683 -0.000000 -0.923880
v -0.353553 -0.382684 -0.853553
v -0.270598 -0.707107 -0.653281
v -0.146446 -0.928357 -0.353553
v 0.000001 -0.000000 -1.000000
v 0.000000 -0.707107 -0.707106
v 0.000000 -0.928357 -0.000000
v 0.196210 1.007162 -0.473692
v 0.102764 1.417706 -0.248095
v 0.189884 1.417706 -0.189884
v 0.362548 1.007161 -0.362549
v 0.248095 1.417706 -0.102764
v 0.473692 1.007162 -0.196210
v 0.268536 1.417706 -0.000000
v 0.512721 1.007162 -0.000000
v 0.248095 1.417707 0.102764
v 0.473692 1.007162 0.196210
v 0.189884 1.417707 0.189884
v 0.362548 1.007162 0.362548
v 0.102764 1.417707 0.248095
v 0.196210 1.007162 0.473692
v -0.000000 1.417707 0.268536
v -0.000000 1.007162 0.512721
v -0.102764 1.417707 0.248095
v -0.196210 1.007162 0.473692
v -0.189884 1.417707 0.189884
v -0.362548 1.007162 0.362548
v -0.248095 1.417707 0.102764
v -0.473692 1.007162 0.196209
v -0.268536 1.417706 -0.000000
v -0.512721 1.007162 -0.000000
v -0.248095 1.417706 -0.102764
v -0.473692 1.007162 -0.196210
v -0.189884 1.417706 -0.189884
v -0.362548 1.007162 -0.362549
v -0.102764 1.417706 -0.248095
v -0.196210 1.007162 -0.473692
v 0.000000 1.417706 -0.268536
v 0.000000 1.007162 -0.512721
vn 0.0000 0.0000 -1.0000
vn 0.0000 0.3743 -0.9273
vn 0.3548 0.3743 -0.8567
vn 0.3827 0.0000 -0.9239
vn 0.5905 0.5500 -0.5905
vn 0.6002 0.5286 -0.6002
vn 0.7842 0.5286 -0.3248
vn 0.7715 0.5500 -0.3196
vn 0.0000 -0.9448 -0.3277
vn 0.0000 -0.6921 -0.7218
vn 0.2762 -0.6921 -0.6669
vn 0.1254 -0.9448 -0.3027
vn 0.0000 -0.3743 -0.9273
vn 0.3548 -0.3743 -0.8567
vn 0.0000 0.5500 -0.8351
vn 0.3196 0.5500 -0.7715
vn 0.0000 0.5286 -0.8488
vn 0.3248 0.5286 -0.7842
vn 0.0000 -1.0000 0.0000
vn 0.5104 -0.6921 -0.5104
vn 0.2317 -0.9448 -0.2317
vn 0.7071 0.0000 -0.7071
vn 0.6557 -0.3743 -0.6557
vn 0.6557 0.3743 -0.6557
vn 0.8488 0.5286 0.0000
vn 0.8351 0.5500 0.0000
vn 0.3027 -0.9448 -0.1254
vn 0.8567 -0.3743 -0.3548
vn 0.6669 -0.6921 -0.2762
vn 0.8567 0.3743 -0.3548
vn 0.9239 0.0000 -0.3827
vn 0.9273 -0.3743 0.0000
vn 0.7218 -0.6921 0.0000
vn 0.9273 0.3743 0.0000
vn 1.0000 0.0000 0.0000
vn 0.3277 -0.9448 0.0000
vn 0.7842 0.5286 0.3248
vn 0.7715 0.5500 0.3196
vn 0.6669 -0.6921 0.2762
vn 0.3027 -0.9448 0.1254
vn 0.9239 0.0000 0.3827
vn 0.8567 -0.3743 0.3548
vn 0.8567 0.3743 0.3548
vn 0.6002 0.5286 0.6002
vn 0.5905 0.5500 0.5905
vn 0.7071 0.0000 0.7071
vn 0.6557 -0.3743 0.6557
vn 0.6557 0.3743 0.6557
vn 0.3248 0.5286 0.7842
vn 0.3196 0.5500 0.7715
vn 0.2317 -0.9448 0.2317
vn 0.5104 -0.6921 0.5104
vn 0.1254 -0.9448 0.3027
vn 0.3548 -0.3743 0.8567
vn 0.2762 -0.6921 0.6669
vn 0.3548 0.3743 0.8567
vn 0.3827 0.0000 0.9239
vn 0.0000 0.5286 0.8488
vn 0.0000 0.5500 0.8351
vn 0.0000 0.3743 0.9273
vn 0.0000 0.0000 1.0000
vn 0.0000 -0.6921 0.7218
vn 0.0000 -0.9448 0.3277
vn 0.0000 -0.3743 0.9273
vn -0.3248 0.5286 0.7842
vn -0.3196 0.5500 0.7715
vn -0.2762 -0.6921 0.6669
vn -0.1254 -0.9448 0.3027
vn -0.3827 0.0000 0.9239
vn -0.3548 -0.3743 0.8567
vn -0.3548 0.3743 0.8567
vn -0.6002 0.5286 0.6002
vn -0.5905 0.5500 0.5905
vn -0.6557 0.3743 0.6557
vn -0.7842 0.5286 0.3248
vn -0.7715 0.5500 0.3196
vn -0.2317 -0.9448 0.2317
vn -0.6557 -0.3743 0.6557
vn -0.5104 -0.6921 0.5104
vn -0.7071 0.0000 0.7071
vn -0.3027 -0.9448 0.1254
vn -0.8567 -0.3743 0.3548
vn -0.6669 -0.6921 0.2762
vn -0.8567 0.3743 0.3548
vn -0.9239 0.0000 0.3827
vn -0.8488 0.5286 0.0000
vn -0.8351 0.5500 0.0000
vn -0.7218 -0.6921 0.0000
vn -0.3277 -0.9448 0.0000
vn -1.0000 0.0000 0.0000
vn -0.9273 -0.3743 0.0000
vn -0.9273 0.3743 0.0000
vn -0.7842 0.5286 -0.3248
vn -0.7715 0.5500 -0.3196
vn -0.6669 -0.6921 -0.2762
vn -0.3027 -0.9448 -0.1254
vn -0.9239 0.0000 -0.3827
vn -0.8567 -0.3743 -0.3548
vn -0.8567 0.3743 -0.3548
vn -0.6002 0.5286 -0.6002
vn -0.5905 0.5500 -0.5905
vn -0.3248 0.5286 -0.7842
vn -0.3196 0.5500 -0.7715
vn -0.2317 -0.9448 -0.2317
vn -0.6557 -0.3743 -0.6557
vn -0.5104 -0.6921 -0.5104
vn -0.6557 0.3743 -0.6557
vn -0.7071 0.0000 -0.7071
vn -0.3548 -0.3743 -0.8567
vn -0.2762 -0.6921 -0.6669
vn -0.3548 0.3743 -0.8567
vn -0.3827 0.0000 -0.9239
vn 0.2060 0.8428 -0.4972
vn 0.0000 0.8428 -0.5382
vn -0.2060 0.8428 -0.4972
vn -0.3806 0.8428 -0.3806
vn -0.4972 0.8428 -0.2060
vn -0.5382 0.8428 0.0000
vn -0.4972 0.8428 0.2060
vn -0.3806 0.8428 0.3806
vn -0.2060 0.8428 0.4972
vn 0.0000 0.8428 0.5382
vn 0.2060 0.8428 0.4972
vn 0.3806 0.8428 0.3806
vn 0.4972 0.8428 0.2060
vn 0.5382 0.8428 0.0000
vn 0.4972 0.8428 -0.2060
vn 0.3806 0.8428 -0.3806
vn -0.1254 -0.9448 -0.3027
usemtl None
s 1
f 95//1 2//2 6//3 7//4
f 11//5 101//6 103//7 17//8
f 4//9 96//10 9//11 10//12
f 3//13 95//1 7//4 8//14
f 2//2 1//15 5//16 6//3
f 1//15 129//17 98//18 5//16
f 97//19 4//9 10//12
f 96//10 3//13 8//14 9//11
f 10//12 9//11 15//20 16//21
f 8//14 7//4 13//22 14//23
f 6//3 5//16 11//5 12//24
f 97//19 10//12 16//21
f 9//11 8//14 14//23 15//20
f 7//4 6//3 12//24 13//22
f 17//8 103//7 105//25 23//26
f 97//19 16//21 22//27
f 15//20 14//23 20//28 21//29
f 13//22 12//24 18//30 19//31
f 16//21 15//20 21//29 22//27
f 14//23 13//22 19//31 20//28
f 12//24 11//5 17//8 18//30
f 21//29 20//28 26//32 27//33
f 19//31 18//30 24//34 25//35
f 22//27 21//29 27//33 28//36
f 20//28 19//31 25//35 26//32
f 18//30 17//8 23//26 24//34
f 23//26 105//25 107//37 29//38
f 97//19 22//27 28//36
f 28//36 27//33 33//39 34//40
f 26//32 25//35 31//41 32//42
f 24//34 23//26 29//38 30//43
f 29//38 107//37 109//44 35//45
f 97//19 28//36 34//40
f 27//33 26//32 32//42 33//39
f 25//35 24//34 30//43 31//41
f 32//42 31//41 37//46 38//47
f 30//43 29//38 35//45 36//48
f 35//45 109//44 111//49 41//50
f 97//19 34//40 40//51
f 33//39 32//42 38//47 39//52
f 31//41 30//43 36//48 37//46
f 34//40 33//39 39//52 40//51
f 97//19 40//51 46//53
f 39//52 38//47 44//54 45//55
f 37//46 36//48 42//56 43//57
f 40//51 39//52 45//55 46//53
f 38//47 37//46 43//57 44//54
f 36//48 35//45 41//50 42//56
f 41//50 111//49 113//58 47//59
f 43//57 42//56 48//60 49//61
f 46//53 45//55 51//62 52//63
f 44//54 43//57 49//61 50//64
f 42//56 41//50 47//59 48//60
f 47//59 113//58 115//65 53//66
f 97//19 46//53 52//63
f 45//55 44//54 50//64 51//62
f 52//63 51//62 57//67 58//68
f 50//64 49//61 55//69 56//70
f 48//60 47//59 53//66 54//71
f 53//66 115//65 117//72 59//73
f 97//19 52//63 58//68
f 51//62 50//64 56//70 57//67
f 49//61 48//60 54//71 55//69
f 54//71 53//66 59//73 60//74
f 59//73 117//72 119//75 65//76
f 97//19 58//68 64//77
f 57//67 56//70 62//78 63//79
f 55//69 54//71 60//74 61//80
f 58//68 57//67 63//79 64//77
f 56//70 55//69 61//80 62//78
f 97//19 64//77 70//81
f 63//79 62//78 68//82 69//83
f 61//80 60//74 66//84 67//85
f 64//77 63//79 69//83 70//81
f 62//78 61//80 67//85 68//82
f 60//74 59//73 65//76 66//84
f 65//76 119//75 121//86 71//87
f 70//81 69//83 75//88 76//89
f 68//82 67//85 73//90 74//91
f 66//84 65//76 71//87 72//92
f 71//87 121//86 123//93 77//94
f 97//19 70//81 76//89
f 69//83 68//82 74//91 75//88
f 67//85 66//84 72//92 73//90
f 76//89 75//88 81//95 82//96
f 74//91 73//90 79//97 80//98
f 72//92 71//87 77//94 78//99
f 77//94 123//93 125//100 83//101
f 97//19 76//89 82//96
f 75//88 74//91 80//98 81//95
f 73//90 72//92 78//99 79//97
f 83//101 125//100 127//102 89//103
f 97//19 82//96 88//104
f 81//95 80//98 86//105 87//106
f 79//97 78//99 84//107 85//108
f 82//96 81//95 87//106 88//104
f 80//98 79//97 85//108 86//105
f 78//99 77//94 83//101 84//107
f 87//106 86//105 92//109 93//110
f 85//108 84//107 90//111 91//112
f 99//113 128//114 126//115 124//116 122//117 120//118 118//119 116//120 114//121 112//122 110//123 108//124 106//125 104//126 102//127 100//128
f 88//104 87//106 93//110 94//129
f 86//105 85//108 91//112 92//109
f 84//107 83//101 89//103 90//111
f 89//103 127//102 129//17 1//15
f 97//19 88//104 94//129
f 94//129 93//110 96//10 4//9
f 92//109 91//112 95//1 3//13
f 90//111 89//103 1//15 2//2
f 97//19 94//129 4//9
f 93//110 92//109 3//13 96//10
f 91//112 90//111 2//2 95//1
f 101//6 98//18 99//113 100//128
f 103//7 101//6 100//128 102//127
f 102//127 104//126 105//25 103//7
f 107//37 105//25 104//126 106//125
f 109//44 107//37 106//125 108//124
f 108//124 110//123 111//49 109//44
f 110//123 112//122 113//58 111//49
f 115//65 113//58 112//122 114//121
f 117//72 115//65 114//121 116//120
f 116//120 118//119 119//75 117//72
f 118//119 120//118 121//86 119//75
f 123//93 121//86 120//118 122//117
f 125//100 123//93 122//117 124//116
f 124//116 126//115 127//102 125//100
f 129//17 127//102 126//115 128//114
f 128//114 99//113 98//18 129//17
f 5//16 98//18 101//6 11//5
