# Blender v2.79 (sub 0) OBJ File: ''
# www.blender.org
mtllib peas.mtl
o peas_Cube.003
v -0.112515 -0.754584 2.790947
v -0.283961 -0.754584 2.619501
v -0.283961 0.754584 2.619501
v -0.112515 0.754584 2.790947
v -0.283961 -0.754584 2.040477
v -0.112515 -0.754584 1.869031
v -0.112515 0.754584 1.869031
v -0.283961 0.754584 2.040477
v 0.283961 -0.754584 2.619501
v 0.112515 -0.754584 2.790947
v 0.112515 0.754584 2.790947
v 0.283961 0.754584 2.619501
v 0.112515 -0.754584 1.869031
v 0.283961 -0.754584 2.040477
v 0.283961 0.754584 2.040477
v 0.112515 0.754584 1.869031
vt 0.106144 0.226093
vt 0.106144 0.473448
vt 0.069262 0.473448
vt 0.069262 0.226093
vt 0.977317 -0.318194
vt 0.977317 1.312299
vt 0.351745 1.312299
vt 0.351745 -0.318194
vt 0.152525 0.473625
vt 0.180625 0.501725
vt 0.180625 0.538608
vt 0.152525 0.566708
vt 0.057622 0.566708
vt 0.029522 0.538608
vt 0.029522 0.501725
vt 0.057622 0.473625
vt 0.972630 -0.318194
vt 0.972630 1.312299
vt 0.347057 1.312299
vt 0.347057 -0.318194
vt 0.222683 0.226093
vt 0.222683 0.473448
vt 0.185801 0.473448
vt 0.185801 0.226093
vt 0.029522 0.473448
vt 0.029522 0.226093
vt 0.262423 0.226093
vt 0.262423 0.473448
vt 0.146061 0.473448
vt 0.146061 0.226093
vt 0.145884 0.226093
vt 0.145884 0.473448
vt 0.303805 0.473625
vt 0.331906 0.501725
vt 0.331906 0.538608
vt 0.303805 0.566708
vt 0.208902 0.566708
vt 0.180802 0.538608
vt 0.180802 0.501725
vt 0.208902 0.473625
vn 0.2971 -0.6302 0.7173
vn 0.2971 0.6302 0.7173
vn -0.2971 0.6302 0.7173
vn -0.2971 -0.6302 0.7173
vn 0.7173 -0.6302 -0.2971
vn 0.7173 0.6302 -0.2971
vn 0.7173 0.6302 0.2971
vn 0.7173 -0.6302 0.2971
vn 0.2971 0.6302 -0.7173
vn -0.2971 0.6302 -0.7173
vn -0.7173 0.6302 -0.2971
vn -0.7173 0.6302 0.2971
vn -0.7173 -0.6302 0.2971
vn -0.7173 -0.6302 -0.2971
vn -0.2971 -0.6302 -0.7173
vn 0.2971 -0.6302 -0.7173
usemtl None
s 1
f 10/1/1 11/2/2 4/3/3 1/4/4
f 14/5/5 15/6/6 12/7/7 9/8/8
f 15/9/6 16/10/9 7/11/10 8/12/11 3/13/12 4/14/3 11/15/2 12/16/7
f 2/17/13 3/18/12 8/19/11 5/20/14
f 6/21/15 7/22/10 16/23/9 13/24/16
f 1/4/4 4/3/3 3/25/12 2/26/13
f 7/22/10 6/21/15 5/27/14 8/28/11
f 15/29/6 14/30/5 13/24/16 16/23/9
f 11/2/2 10/1/1 9/31/8 12/32/7
f 5/33/14 6/34/15 13/35/16 14/36/5 9/37/8 10/38/1 1/39/4 2/40/13
