# Blender v2.79 (sub 0) OBJ File: 'potato2.blend'
# www.blender.org
mtllib potato2.mtl
o Icosphere
v 0.000000 0.000000 -1.462404
v 0.723600 -0.525720 -0.654009
v -0.276385 -0.850640 -0.654009
v -0.894425 0.000000 -0.654009
v -0.276385 0.850640 -0.654009
v 0.723600 0.525720 -0.654009
v 0.276385 -0.850640 0.654009
v -0.723600 -0.525720 0.654009
v -0.723600 0.525720 0.654009
v 0.276385 0.850640 0.654009
v 0.894425 -0.000000 0.654009
v 0.000000 0.000000 1.462404
vn 0.2303 -0.7086 -0.6669
vn 0.7451 0.0000 -0.6669
vn -0.6028 -0.4380 -0.6669
vn -0.6028 0.4380 -0.6669
vn 0.2303 0.7086 -0.6669
vn 0.9916 0.0000 -0.1295
vn 0.3064 -0.9430 -0.1295
vn -0.8022 -0.5828 -0.1295
vn -0.8022 0.5828 -0.1295
vn 0.3064 0.9430 -0.1295
vn 0.8022 -0.5828 0.1295
vn -0.3064 -0.9430 0.1295
vn -0.9916 0.0000 0.1295
vn -0.3064 0.9430 0.1295
vn 0.8022 0.5828 0.1295
vn 0.6028 -0.4380 0.6669
vn -0.2303 -0.7086 0.6669
vn -0.7451 0.0000 0.6669
vn -0.2303 0.7086 0.6669
vn 0.6028 0.4380 0.6669
usemtl Material.001
s off
f 1//1 2//1 3//1
f 2//2 1//2 6//2
f 1//3 3//3 4//3
f 1//4 4//4 5//4
f 1//5 5//5 6//5
f 2//6 6//6 11//6
f 3//7 2//7 7//7
f 4//8 3//8 8//8
f 5//9 4//9 9//9
f 6//10 5//10 10//10
f 2//11 11//11 7//11
f 3//12 7//12 8//12
f 4//13 8//13 9//13
f 5//14 9//14 10//14
f 6//15 10//15 11//15
f 7//16 11//16 12//16
f 8//17 7//17 12//17
f 9//18 8//18 12//18
f 10//19 9//19 12//19
f 11//20 10//20 12//20
