# Blender v2.79 (sub 0) OBJ File: 'watermelon.blend'
# www.blender.org
mtllib watermelon.mtl
o Sphere
v 0.000000 0.707107 0.985073
v 0.000000 0.923880 0.533117
v 0.000000 0.923880 -0.533117
v 0.000000 0.382684 -1.287059
v 0.146447 0.353553 1.287059
v 0.270598 0.653281 0.985072
v 0.353553 0.853553 0.533117
v 0.382683 0.923880 0.000000
v 0.353553 0.853553 -0.533117
v 0.270598 0.653282 -0.985072
v 0.146447 0.353553 -1.287059
v 0.270598 0.270598 1.287059
v 0.500000 0.500000 0.985072
v 0.653281 0.653281 0.533117
v 0.707107 0.707107 -0.000000
v 0.653281 0.653281 -0.533117
v 0.500000 0.500000 -0.985072
v 0.270598 0.270598 -1.287059
v 0.353553 0.146447 1.287059
v 0.653281 0.270598 0.985072
v 0.853553 0.353553 0.533117
v 0.923879 0.382683 -0.000000
v 0.853553 0.353553 -0.533117
v 0.653281 0.270598 -0.985072
v 0.353553 0.146447 -1.287059
v 0.382683 0.000000 1.287059
v 0.707107 0.000000 0.985072
v 0.923879 -0.000000 0.533117
v 1.000000 0.000000 -0.000000
v 0.923879 0.000000 -0.533117
v 0.707107 0.000000 -0.985072
v 0.382683 0.000000 -1.287059
v 0.353553 -0.146446 1.287059
v 0.653281 -0.270598 0.985072
v 0.853553 -0.353553 0.533117
v 0.923879 -0.382683 -0.000000
v 0.853553 -0.353553 -0.533117
v 0.653281 -0.270598 -0.985072
v 0.353553 -0.146446 -1.287059
v 0.270598 -0.270598 1.287059
v 0.500000 -0.500000 0.985072
v 0.653281 -0.653281 0.533117
v 0.707106 -0.707107 -0.000000
v 0.653281 -0.653281 -0.533117
v 0.500000 -0.500000 -0.985072
v 0.270598 -0.270598 -1.287059
v 0.146446 -0.353553 1.287059
v 0.270598 -0.653281 0.985072
v 0.353553 -0.853553 0.533117
v 0.382683 -0.923879 -0.000000
v 0.353553 -0.853553 -0.533118
v 0.270598 -0.653281 -0.985072
v 0.146446 -0.353553 -1.287059
v -0.000000 -0.382683 1.287059
v -0.000000 -0.707106 0.985072
v -0.000000 -0.923879 0.533117
v -0.000000 -1.000000 -0.000000
v -0.000000 -0.923879 -0.533118
v -0.000000 -0.707106 -0.985073
v -0.000000 -0.382683 -1.287059
v -0.146447 -0.353553 1.287059
v -0.270598 -0.653281 0.985072
v -0.353554 -0.853553 0.533117
v -0.382684 -0.923879 -0.000000
v -0.353554 -0.853553 -0.533118
v -0.270598 -0.653281 -0.985072
v -0.146447 -0.353553 -1.287059
v -0.270598 -0.270598 1.287059
v -0.500000 -0.499999 0.985072
v -0.653282 -0.653281 0.533117
v -0.707107 -0.707106 -0.000000
v -0.653282 -0.653281 -0.533117
v -0.500000 -0.499999 -0.985072
v -0.270598 -0.270598 -1.287059
v -0.353553 -0.146446 1.287059
v -0.653281 -0.270598 0.985072
v -0.853553 -0.353553 0.533117
v -0.923879 -0.382683 -0.000000
v -0.853553 -0.353553 -0.533117
v -0.653281 -0.270597 -0.985072
v -0.353553 -0.146446 -1.287059
v -0.382683 0.000000 1.287059
v -0.707106 0.000000 0.985072
v -0.923879 0.000001 0.533117
v -1.000000 0.000001 -0.000000
v -0.923879 0.000001 -0.533117
v -0.707106 0.000001 -0.985072
v -0.382683 0.000000 -1.287059
v -0.353553 0.146447 1.287059
v -0.653281 0.270598 0.985072
v -0.853553 0.353554 0.533117
v -0.923879 0.382684 -0.000000
v -0.853553 0.353554 -0.533117
v -0.653281 0.270598 -0.985072
v -0.353553 0.146447 -1.287059
v -0.270598 0.270598 1.287059
v -0.499999 0.500000 0.985072
v -0.653281 0.653282 0.533117
v -0.707106 0.707107 -0.000000
v -0.653281 0.653282 -0.533117
v -0.499999 0.500000 -0.985072
v -0.270598 0.270598 -1.287059
v -0.146446 0.353553 1.287059
v -0.270598 0.653281 0.985072
v -0.353553 0.853553 0.533117
v -0.382683 0.923880 0.000000
v -0.353553 0.853553 -0.533117
v -0.270598 0.653281 -0.985072
v -0.146446 0.353553 -1.287059
v -0.000000 -0.000000 1.393103
v 0.000000 0.382683 1.287059
v 0.000001 1.000000 0.000000
v 0.000000 0.707107 -0.985072
v 0.000000 0.000000 -1.393103
vt 0.282203 0.232330
vt 0.265069 0.173848
vt 0.302910 0.166528
vt 0.303544 0.230145
vt 0.242150 0.106044
vt 0.210832 0.017719
vt 0.285169 0.001112
vt 0.296447 0.093366
vt 0.683150 0.474755
vt 0.731646 0.413103
vt 0.768878 0.431773
vt 0.736467 0.507374
vt 0.766114 0.358841
vt 0.795747 0.297516
vt 0.787216 0.366646
vt 0.295747 0.297516
vt 0.612985 0.555051
vt 0.686280 0.604860
vt 0.811095 0.367646
vt 0.325835 0.234576
vt 0.353360 0.092708
vt 0.343356 0.168937
vt 0.799041 0.527006
vt 0.770441 0.637005
vt 0.812515 0.440176
vt 0.359622 0.000114
vt 0.411641 0.103137
vt 0.385272 0.181800
vt 0.869149 0.532595
vt 0.860927 0.651630
vt 0.835987 0.360483
vt 0.861114 0.436267
vt 0.347564 0.246436
vt 0.431523 0.011365
vt 0.427995 0.206615
vt 0.366807 0.266798
vt 0.499886 0.030011
vt 0.471557 0.123618
vt 0.913491 0.417539
vt 0.947281 0.524165
vt 0.859334 0.343964
vt 0.954040 0.651630
vt 0.447280 0.524165
vt 0.454038 0.651630
vt 0.360926 0.651630
vt 0.369148 0.532594
vt 0.971557 0.123618
vt 0.927995 0.206615
vt 0.885272 0.181800
vt 0.911641 0.103137
vt 0.866808 0.266798
vt 0.847565 0.246436
vt 0.359334 0.343964
vt 0.335986 0.360482
vt 0.413490 0.417539
vt 0.361113 0.436267
vt 0.999886 0.030010
vt 0.931523 0.011364
vt 0.311094 0.367645
vt 0.299040 0.527006
vt 0.312514 0.440175
vt 0.853360 0.092708
vt 0.859621 0.000114
vt 0.825836 0.234576
vt 0.843356 0.168937
vt 0.270440 0.637005
vt 0.796447 0.093367
vt 0.785168 0.001113
vt 0.803544 0.230145
vt 0.802910 0.166528
vt 0.268877 0.431772
vt 0.287215 0.366645
vt 0.186278 0.604859
vt 0.236466 0.507373
vt 0.231645 0.413102
vt 0.266113 0.358840
vt 0.112984 0.555050
vt 0.183149 0.474754
vt 0.765069 0.173849
vt 0.742150 0.106045
vt 0.782203 0.232331
vt 0.710831 0.017720
vt 0.731426 0.190175
vt 0.692812 0.130974
vt 0.763151 0.240336
vt 0.249130 0.345635
vt 0.141406 0.431159
vt 0.202357 0.386201
vt 0.640817 0.051688
vt 0.055160 0.489708
vt 0.237250 0.328531
vt 0.113356 0.379501
vt 0.182343 0.353352
vt 0.651316 0.167427
vt 0.580148 0.102865
vt 0.747599 0.253239
vt 0.703777 0.214444
vt 0.016691 0.412827
vt 0.736590 0.269919
vt 0.683859 0.245108
vt 0.172494 0.317100
vt 0.231100 0.309122
vt 0.000114 0.329746
vt 0.100423 0.323385
vt 0.620570 0.213617
vt 0.533854 0.169114
vt 0.173114 0.280135
vt 0.230925 0.289047
vt 0.006210 0.246502
vt 0.103046 0.266776
vt 0.673114 0.280136
vt 0.603046 0.266777
vt 0.730925 0.289048
vt 0.506210 0.246503
vt 0.731100 0.309122
vt 0.236589 0.269919
vt 0.120570 0.213615
vt 0.183859 0.245107
vt 0.600424 0.323386
vt 0.500115 0.329748
vt 0.672495 0.317101
vt 0.033854 0.169112
vt 0.151317 0.167426
vt 0.203777 0.214443
vt 0.613357 0.379503
vt 0.516691 0.412829
vt 0.737251 0.328531
vt 0.682344 0.353353
vt 0.247599 0.253238
vt 0.080148 0.102864
vt 0.231426 0.190174
vt 0.263150 0.240336
vt 0.140818 0.051687
vt 0.192812 0.130973
vt 0.702358 0.386201
vt 0.641407 0.431160
vt 0.749131 0.345636
vt 0.555161 0.489709
vn 0.0000 0.5101 -0.8601
vn 0.0000 0.8133 -0.5817
vn 0.3113 0.7515 -0.5817
vn 0.1952 0.4712 -0.8601
vn 0.0000 0.9585 -0.2852
vn 0.0000 1.0000 0.0000
vn 0.3827 0.9239 0.0000
vn 0.3668 0.8855 -0.2852
vn 0.0000 0.9585 0.2852
vn 0.0000 0.8133 0.5817
vn 0.3113 0.7515 0.5817
vn 0.3668 0.8855 0.2852
vn 0.0000 0.5101 0.8601
vn 0.0000 0.0000 1.0000
vn 0.1952 0.4712 0.8601
vn 0.0000 0.0000 -1.0000
vn 0.3607 0.3607 0.8601
vn 0.3607 0.3607 -0.8601
vn 0.6777 0.6777 -0.2852
vn 0.5751 0.5751 -0.5817
vn 0.6777 0.6777 0.2852
vn 0.7071 0.7071 0.0000
vn 0.5751 0.5751 0.5817
vn 0.8855 0.3668 -0.2852
vn 0.7515 0.3113 -0.5817
vn 0.8855 0.3668 0.2852
vn 0.9239 0.3827 0.0000
vn 0.4712 0.1952 0.8601
vn 0.7515 0.3113 0.5817
vn 0.4712 0.1952 -0.8601
vn 0.8133 0.0000 -0.5817
vn 0.5101 0.0000 -0.8601
vn 1.0000 0.0000 0.0000
vn 0.9585 0.0000 -0.2852
vn 0.8133 0.0000 0.5817
vn 0.9585 0.0000 0.2852
vn 0.5101 0.0000 0.8601
vn 0.9239 -0.3827 0.0000
vn 0.8855 -0.3668 -0.2852
vn 0.7515 -0.3113 0.5817
vn 0.8855 -0.3668 0.2852
vn 0.4712 -0.1952 0.8601
vn 0.4712 -0.1952 -0.8601
vn 0.7515 -0.3113 -0.5817
vn 0.3607 -0.3607 -0.8601
vn 0.6777 -0.6777 -0.2852
vn 0.5751 -0.5751 -0.5817
vn 0.6777 -0.6777 0.2852
vn 0.7071 -0.7071 0.0000
vn 0.3607 -0.3607 0.8601
vn 0.5751 -0.5751 0.5817
vn 0.3668 -0.8855 0.2852
vn 0.3827 -0.9239 0.0000
vn 0.1952 -0.4712 0.8601
vn 0.3113 -0.7515 0.5817
vn 0.3113 -0.7515 -0.5817
vn 0.1952 -0.4712 -0.8601
vn 0.3668 -0.8855 -0.2852
vn 0.0000 -0.8133 -0.5817
vn 0.0000 -0.5101 -0.8601
vn 0.0000 -1.0000 0.0000
vn 0.0000 -0.9585 -0.2852
vn 0.0000 -0.8133 0.5817
vn 0.0000 -0.9585 0.2852
vn 0.0000 -0.5101 0.8601
vn -0.3113 -0.7515 0.5817
vn -0.3668 -0.8855 0.2852
vn -0.1952 -0.4712 0.8601
vn -0.1952 -0.4712 -0.8601
vn -0.3668 -0.8855 -0.2852
vn -0.3113 -0.7515 -0.5817
vn -0.3827 -0.9239 0.0000
vn -0.3607 -0.3607 -0.8601
vn -0.6777 -0.6777 -0.2852
vn -0.5751 -0.5751 -0.5817
vn -0.6777 -0.6777 0.2852
vn -0.7071 -0.7071 0.0000
vn -0.3607 -0.3607 0.8601
vn -0.5751 -0.5751 0.5817
vn -0.4712 -0.1952 0.8601
vn -0.7515 -0.3113 0.5817
vn -0.7515 -0.3113 -0.5817
vn -0.4712 -0.1952 -0.8601
vn -0.9239 -0.3827 0.0000
vn -0.8855 -0.3668 -0.2852
vn -0.8855 -0.3668 0.2852
vn -0.8133 0.0000 -0.5817
vn -0.5101 0.0000 -0.8601
vn -1.0000 0.0000 0.0000
vn -0.9585 0.0000 -0.2852
vn -0.8133 0.0000 0.5817
vn -0.9585 0.0000 0.2852
vn -0.5101 0.0000 0.8601
vn -0.4712 0.1952 0.8601
vn -0.4712 0.1952 -0.8601
vn -0.8855 0.3668 -0.2852
vn -0.7515 0.3113 -0.5817
vn -0.8855 0.3668 0.2852
vn -0.9239 0.3827 0.0000
vn -0.7515 0.3113 0.5817
vn -0.6777 0.6777 -0.2852
vn -0.5751 0.5751 -0.5817
vn -0.6777 0.6777 0.2852
vn -0.7071 0.7071 0.0000
vn -0.3607 0.3607 0.8601
vn -0.5751 0.5751 0.5817
vn -0.3607 0.3607 -0.8601
vn -0.3113 0.7515 -0.5817
vn -0.1952 0.4712 -0.8601
vn -0.3827 0.9239 0.0000
vn -0.3668 0.8855 -0.2852
vn -0.3113 0.7515 0.5817
vn -0.3668 0.8855 0.2852
vn -0.1952 0.4712 0.8601
usemtl Material.001
s 1
f 4/1/1 113/2/2 10/3/3 11/4/4
f 3/5/5 112/6/6 8/7/7 9/8/8
f 2/9/9 1/10/10 6/11/11 7/12/12
f 111/13/13 110/14/14 5/15/15
f 114/16/16 4/1/1 11/4/4
f 113/2/2 3/5/5 9/8/8 10/3/3
f 112/17/6 2/9/9 7/12/12 8/18/7
f 1/10/10 111/13/13 5/15/15 6/11/11
f 5/15/15 110/14/14 12/19/17
f 114/16/16 11/4/4 18/20/18
f 10/3/3 9/8/8 16/21/19 17/22/20
f 8/18/7 7/12/12 14/23/21 15/24/22
f 6/11/11 5/15/15 12/19/17 13/25/23
f 11/4/4 10/3/3 17/22/20 18/20/18
f 9/8/8 8/7/7 15/26/22 16/21/19
f 7/12/12 6/11/11 13/25/23 14/23/21
f 17/22/20 16/21/19 23/27/24 24/28/25
f 15/24/22 14/23/21 21/29/26 22/30/27
f 13/25/23 12/19/17 19/31/28 20/32/29
f 18/20/18 17/22/20 24/28/25 25/33/30
f 16/21/19 15/26/22 22/34/27 23/27/24
f 14/23/21 13/25/23 20/32/29 21/29/26
f 12/19/17 110/14/14 19/31/28
f 114/16/16 18/20/18 25/33/30
f 25/33/30 24/28/25 31/35/31 32/36/32
f 23/27/24 22/34/27 29/37/33 30/38/34
f 21/29/26 20/32/29 27/39/35 28/40/36
f 19/31/28 110/14/14 26/41/37
f 114/16/16 25/33/30 32/36/32
f 24/28/25 23/27/24 30/38/34 31/35/31
f 22/30/27 21/29/26 28/40/36 29/42/33
f 20/32/29 19/31/28 26/41/37 27/39/35
f 30/43/34 29/44/33 36/45/38 37/46/39
f 28/47/36 27/48/35 34/49/40 35/50/41
f 26/51/37 110/14/14 33/52/42
f 114/16/16 32/53/32 39/54/43
f 31/55/31 30/43/34 37/46/39 38/56/44
f 29/57/33 28/47/36 35/50/41 36/58/38
f 27/48/35 26/51/37 33/52/42 34/49/40
f 32/53/32 31/55/31 38/56/44 39/54/43
f 114/16/16 39/54/43 46/59/45
f 38/56/44 37/46/39 44/60/46 45/61/47
f 36/58/38 35/50/41 42/62/48 43/63/49
f 34/49/40 33/52/42 40/64/50 41/65/51
f 39/54/43 38/56/44 45/61/47 46/59/45
f 37/46/39 36/45/38 43/66/49 44/60/46
f 35/50/41 34/49/40 41/65/51 42/62/48
f 33/52/42 110/14/14 40/64/50
f 43/63/49 42/62/48 49/67/52 50/68/53
f 41/65/51 40/64/50 47/69/54 48/70/55
f 46/59/45 45/61/47 52/71/56 53/72/57
f 44/60/46 43/66/49 50/73/53 51/74/58
f 42/62/48 41/65/51 48/70/55 49/67/52
f 40/64/50 110/14/14 47/69/54
f 114/16/16 46/59/45 53/72/57
f 45/61/47 44/60/46 51/74/58 52/71/56
f 53/72/57 52/71/56 59/75/59 60/76/60
f 51/74/58 50/73/53 57/77/61 58/78/62
f 49/67/52 48/70/55 55/79/63 56/80/64
f 47/69/54 110/14/14 54/81/65
f 114/16/16 53/72/57 60/76/60
f 52/71/56 51/74/58 58/78/62 59/75/59
f 50/68/53 49/67/52 56/80/64 57/82/61
f 48/70/55 47/69/54 54/81/65 55/79/63
f 56/80/64 55/79/63 62/83/66 63/84/67
f 54/81/65 110/14/14 61/85/68
f 114/16/16 60/76/60 67/86/69
f 59/75/59 58/78/62 65/87/70 66/88/71
f 57/82/61 56/80/64 63/84/67 64/89/72
f 55/79/63 54/81/65 61/85/68 62/83/66
f 60/76/60 59/75/59 66/88/71 67/86/69
f 58/78/62 57/77/61 64/90/72 65/87/70
f 114/16/16 67/86/69 74/91/73
f 66/88/71 65/87/70 72/92/74 73/93/75
f 64/89/72 63/84/67 70/94/76 71/95/77
f 62/83/66 61/85/68 68/96/78 69/97/79
f 67/86/69 66/88/71 73/93/75 74/91/73
f 65/87/70 64/90/72 71/98/77 72/92/74
f 63/84/67 62/83/66 69/97/79 70/94/76
f 61/85/68 110/14/14 68/96/78
f 69/97/79 68/96/78 75/99/80 76/100/81
f 74/91/73 73/93/75 80/101/82 81/102/83
f 72/92/74 71/98/77 78/103/84 79/104/85
f 70/94/76 69/97/79 76/100/81 77/105/86
f 68/96/78 110/14/14 75/99/80
f 114/16/16 74/91/73 81/102/83
f 73/93/75 72/92/74 79/104/85 80/101/82
f 71/95/77 70/94/76 77/105/86 78/106/84
f 81/102/83 80/101/82 87/107/87 88/108/88
f 79/104/85 78/103/84 85/109/89 86/110/90
f 77/105/86 76/100/81 83/111/91 84/112/92
f 75/99/80 110/14/14 82/113/93
f 114/16/16 81/102/83 88/108/88
f 80/101/82 79/104/85 86/110/90 87/107/87
f 78/106/84 77/105/86 84/112/92 85/114/89
f 76/100/81 75/99/80 82/113/93 83/111/91
f 82/113/93 110/14/14 89/115/94
f 114/16/16 88/108/88 95/116/95
f 87/107/87 86/110/90 93/117/96 94/118/97
f 85/114/89 84/112/92 91/119/98 92/120/99
f 83/111/91 82/113/93 89/115/94 90/121/100
f 88/108/88 87/107/87 94/118/97 95/116/95
f 86/110/90 85/109/89 92/122/99 93/117/96
f 84/112/92 83/111/91 90/121/100 91/119/98
f 94/118/97 93/117/96 100/123/101 101/124/102
f 92/120/99 91/119/98 98/125/103 99/126/104
f 90/121/100 89/115/94 96/127/105 97/128/106
f 95/116/95 94/118/97 101/124/102 102/129/107
f 93/117/96 92/122/99 99/130/104 100/123/101
f 91/119/98 90/121/100 97/128/106 98/125/103
f 89/115/94 110/14/14 96/127/105
f 114/16/16 95/116/95 102/129/107
f 102/129/107 101/124/102 108/131/108 109/132/109
f 100/123/101 99/130/104 106/133/110 107/134/111
f 98/125/103 97/128/106 104/135/112 105/136/113
f 96/127/105 110/14/14 103/137/114
f 114/16/16 102/129/107 109/132/109
f 101/124/102 100/123/101 107/134/111 108/131/108
f 99/126/104 98/125/103 105/136/113 106/138/110
f 97/128/106 96/127/105 103/137/114 104/135/112
f 107/134/111 106/133/110 112/6/6 3/5/5
f 105/136/113 104/135/112 1/10/10 2/9/9
f 103/137/114 110/14/14 111/13/13
f 114/16/16 109/132/109 4/1/1
f 108/131/108 107/134/111 3/5/5 113/2/2
f 106/138/110 105/136/113 2/9/9 112/17/6
f 104/135/112 103/137/114 111/13/13 1/10/10
f 109/132/109 108/131/108 113/2/2 4/1/1
